<?xml version="1.0" encoding="UTF-8" standalone="no"?>
<!-- Created with Inkscape (http://www.inkscape.org/) -->

<svg
   xmlns:dc="http://purl.org/dc/elements/1.1/"
   xmlns:cc="http://creativecommons.org/ns#"
   xmlns:rdf="http://www.w3.org/1999/02/22-rdf-syntax-ns#"
   xmlns:svg="http://www.w3.org/2000/svg"
   xmlns="http://www.w3.org/2000/svg"
   xmlns:sodipodi="http://sodipodi.sourceforge.net/DTD/sodipodi-0.dtd"
   xmlns:inkscape="http://www.inkscape.org/namespaces/inkscape"
   width="210mm"
   height="297mm"
   viewBox="0 0 744.09448819 1052.3622047"
   id="svg2"
   version="1.1"
   inkscape:version="0.91 r13725"
   sodipodi:docname="_combined_simplified1.svg">
  <defs
     id="defs4" />
  <sodipodi:namedview
     id="base"
     pagecolor="#ffffff"
     bordercolor="#666666"
     borderopacity="1.0"
     inkscape:pageopacity="0.0"
     inkscape:pageshadow="2"
     inkscape:zoom="1.4"
     inkscape:cx="197.56325"
     inkscape:cy="700.75005"
     inkscape:document-units="px"
     inkscape:current-layer="svg2"
     showgrid="false"
     inkscape:window-width="1920"
     inkscape:window-height="1137"
     inkscape:window-x="-8"
     inkscape:window-y="-8"
     inkscape:window-maximized="1" />
  <metadata
     id="metadata7">
    <rdf:RDF>
      <cc:Work
         rdf:about="">
        <dc:format>image/svg+xml</dc:format>
        <dc:type
           rdf:resource="http://purl.org/dc/dcmitype/StillImage" />
        <dc:title></dc:title>
      </cc:Work>
    </rdf:RDF>
  </metadata>
  <g
     id="g6">
    <!-- COMPOSE BEGIN -->
    <g
       id="abia">
      <g
         id="g3968">
        <path
           style="opacity:0.5"
           d="m 211,420.3 c 1.49685,10.20315 23.84852,7.01375 18.24578,22.32844 -6.97023,-5.83868 -14.93263,-7.14917 -12.5077,1.45587 -12.25334,-1.02632 0.46725,24.66519 -15.0952,15.07903 -15.27005,-1.75863 15.76553,-26.36929 1.12672,-34.64724 -8.49456,-2.7051 5.71774,-6.08054 8.2304,-4.2161 z"
           id="path3970"
           inkscape:connector-curvature="0" />
      </g>
    </g>
    <!-- COMPOSE END -->
    <!-- COMPOSE BEGIN -->
    <g
       id="g11">
      <path
         d="m 211,455.3 c 3.20861,1.79402 -1.94962,8.57118 4.5,7 5.22327,-0.85923 7.72877,1.24445 10.7,4.7 2.16569,2.52973 1.9205,9.40255 4.2,12.7 -3.93073,-0.86903 -7.59626,-3.18807 -10,-6.2 -4.05511,-2.94988 -4.87022,5.99649 -3.1,5.6 1.70238,4.31369 -8.23867,-0.078 -5,4.5 -1.67895,3.58679 0.64423,7.842 -3.3,9.9 -0.54478,1.56648 3.502,8.24361 -0.2,5.1 -4.06957,-2.52398 -8.94024,0.39777 -12.9,-1.5 -1.34733,-4.42549 7.28121,-7.60816 4.1,-11.7 0.56227,-5.17396 4.50734,-8.54239 6.5,-12.9 -0.83844,-4.05938 -0.39808,-5.47704 -0.5,-9.5 1.01503,-4.24854 -9.75412,-2.79133 -4.6,-6.6 2.81707,-1.82547 6.26969,-1.81437 9.6,-1.1 z"
         id="path13"
         inkscape:connector-curvature="0" />
    </g>
    <!-- COMPOSE END -->
    <!-- COMPOSE BEGIN -->
    <g
       id="adamawa">
      <path
         d="m 480.5,271.6 c -0.99226,3.13777 -4.01531,4.94245 -4.6,8.4 -5.03379,1.91059 0.45062,6.75678 -2.7,9.1 -0.1574,3.11355 -0.63117,6.18091 -2.6,8.5 -0.2859,3.31196 -4.35584,3.68056 -6.9,4.6 -1.70573,1.82722 -3.25519,3.4682 -1.3,5.1 -1.41316,1.8359 -3.58898,4.11885 -0.1,5.1 2.29477,1.43274 -1.62836,4.178 -1.1,6.1 0.20007,2.61083 -0.96541,5.68618 -4.7,5.5 -4.51102,-0.22648 -9.39579,2.9755 -12.4,5.6 4.36645,0.24114 1.04352,5.91392 1.2,8.4 1.23337,3.21228 -2.0657,6.86041 -3.9,9.3 -0.41891,1.55521 2.08437,5.79815 -1.6,5.3 -3.00345,-0.29082 -1.56165,5.18589 -4.9,4.3 -2.22079,3.3326 -5.25382,-0.0373 -7.6,1.3 -0.95437,2.80771 -3.26213,6.2851 -7,5.3 -4.5128,0.36555 -3.73167,5.06012 -2.4,8.3 1.25647,3.60479 -3.6959,5.46416 -1.4,9.1 -2.86307,5.13741 -9.43022,8.60352 -8.6,15.1 2.2818,4.41331 -3.16926,2.71992 -4.7,5.7 -4.38492,-3.99188 -0.25364,-11.89723 -6.5,-14.9 -4.05836,-6.89716 -7.73416,0.33008 -11.6939,-0.99512 -5.40913,-4.28758 -4.6258,-10.38671 1.7939,-13.00488 4.87336,-4.73205 9.88836,-10.13074 14.3,-14.7 -2.49478,-5.79341 9.04926,-11.52487 2.4,-16.1 -6.62867,-0.96997 -2.84177,-8.66502 -7.7,-12 -4.97753,-0.68376 -7.51655,-4.50517 -9.6,-8.8 6.53869,-0.6737 13.70058,-3.92595 18.1,-8.6 -2.75541,-8.71218 2.83324,-8.07684 9.4075,-8.6025 5.45754,-3.15944 8.06178,-11.95037 15.8925,-10.2975 5.52005,-2.17839 9.27641,-4.69143 13.5,-8.8 7.55791,-4.33381 12.93536,5.0331 20.1,4.3 1.88012,-5.80205 6.22664,-11.65789 5.4,-18.3 3.36563,1.54466 10.53539,-0.90205 11.9,0.7 z"
         id="path16"
         inkscape:connector-curvature="0" />
    </g>
    <!-- COMPOSE END -->
    <!-- COMPOSE BEGIN -->
    <g
       id="akwa_ibom">
      <path
         d="m 215.5,512.5 c 0.49388,0.21424 -0.36275,-0.0303 0,0 z m 2.9,-1.8 c 0.91292,0.43784 3.16026,0.19155 4.2,0.3 -1.37817,-0.16771 -4.97787,1.25366 -4.7,0 0.22506,-0.0182 0.20029,-0.36394 0.5,-0.3 z m 28,-1.4 c 0.009,-0.30545 -0.0142,-0.0614 0,0 z m 0.4,-3 c 1.88379,1.12853 -1.43027,2.87016 -0.7,1 0.55111,-0.01 0.0806,-0.84 0.7,-1 z m -19,-27.2 c -2.74193,2.02518 0.9577,5.25502 4.4,4.1 5.84069,1.0682 0.11172,8.63636 5.5,11.4 1.81338,3.30874 8.58637,5.46971 8.4,8.6 0.71716,0.15431 0.52332,2.9282 -0.2,2.2 1.41261,0.74486 -0.10347,2.81085 -1.1,3.1 -0.76803,-0.60171 -2.17399,-1.47851 -1,-0.6 1.21783,0.28749 -0.25471,0.97849 -0.1,1 1.99671,-1.12571 1.05245,0.72878 1.1,1.1 -2.76483,0.12057 -7.5121,-0.56284 -10.5,-0.1 -1.79057,0.004 -4.9222,0.17486 -6.2,0.4 -2.06591,0.0305 -6.20452,1.1217 -7.5,0.4 0.17943,0.16442 -3.69592,0.31545 -1,-0.6 -1.42428,1.29108 -3.9624,0.49057 -1,-0.5 -0.21256,-0.29456 -3.25129,1.90216 -1.2,1.5 -1.02213,0.53812 1.35829,0.32136 -1.1,1.2 -0.5355,0.62552 -2.37942,-1.11865 -2,-1.5 2.52862,0.26461 -3.7915,0.18604 -0.8,-1 1.00204,0.29278 3.27396,-0.79219 1.9,-0.6 -0.1478,-0.93036 -0.69888,-0.33419 -0.2,0.1 -0.70431,0.56144 -4.11805,1.41025 -3.4,-1.4 0.78987,-4.41237 -0.533,-7.77537 -2.7,-11.4 -1.14845,-3.47489 3.3738,-4.65044 2.3,-8.2 1.47278,-2.65047 -1.30474,-7.42707 2.4,-7.2 5.78286,0.74399 1.33793,-1.89595 3.1,-4.4 -1.25583,-6.04819 5.35716,-2.91679 6.9,0.3 1.49036,0.51676 2.98389,0.71698 4,2.1 z"
         id="path19"
         inkscape:connector-curvature="0" />
    </g>
    <!-- COMPOSE END -->
    <!-- COMPOSE BEGIN -->
    <g
       id="anambra">
      <path
         d="m 185.1,429.1 c 2.99493,0.12042 11.36638,0.59717 7.3,5.1 -3.32811,1.33957 -4.14825,6.02507 0.4,6 2.19578,2.59887 2.20206,4.52977 1.8,6.9 4.47464,-1.89606 2.34731,7.39835 7.3,7.2 3.76139,-0.49519 2.41413,1.22519 -0.5,2.1 -3.23221,6.02829 -14.45262,-1.85439 -15.9,6.2 -1.71239,5.39415 -7.69397,-1.93697 -9.6,3.9 -2.83595,1.61673 -5.56079,-0.54639 -2.4,-2.9 2.42881,-5.72582 6.43799,-12.11295 3.4,-18.5 -0.10376,-3.04777 -3.13622,-6.78292 -2.1,-9.4 4.31741,1.40024 5.90775,-2.37932 6.3,-6 1.78098,-0.91561 4.90388,-5.24096 4,-0.6 z"
         id="path22"
         inkscape:connector-curvature="0" />
    </g>
    <!-- COMPOSE END -->
    <!-- COMPOSE BEGIN -->
    <g
       id="bauchi">
      <path
         d="m 351.7,215 c 1.4175,6.093 3.51946,11.05388 4.4,17.3 0.6631,7.74802 9.51582,14.34454 4.5,22.4 5.78854,3.27759 -0.52052,4.65679 -4.5,7.9 -3.99331,3.13164 -9.61695,3.90534 -9.71694,10.56312 -5.9124,6.20568 -0.35654,5.64138 2.81694,10.23688 -0.84149,5.84882 10.29591,3.7558 7.26676,11.06582 3.32251,6.6586 -11.02136,5.26986 -2.26676,10.73418 5.17194,2.34179 10.12072,5.59928 9.9,11.8 6.85395,7.51762 -3.8904,2.39953 -7.71488,4.67965 -4.38614,2.12945 -9.69208,2.17336 -13.78512,2.52035 -9.17239,-5.17078 -19.25526,-8.1632 -28.8,-12.4 -2.60292,3.53098 0.19497,6.82643 -6,10.5 -6.30421,1.28569 -14.17763,1.71847 -19.5,-1.6 -0.91778,-4.15336 -8.47266,-3.71931 -3.5,-8.5 1.86602,-7.19546 -4.96365,-8.02604 -10.1,-5.9 -0.5633,-4.15735 0.99328,-15.65925 -7.8,-13.2 -4.6834,-1.17552 -3.99127,-5.02766 -1.5,-8.2 7.04649,-5.50001 -3.55284,-9.91482 -0.89075,-16.5555 0.95608,-5.15181 7.96903,-3.4218 9.99075,-8.9445 3.35704,-4.38166 7.68142,-2.39584 12,-4.3 5.61453,2.32367 12.25731,0.0947 15.96759,4.01524 4.76054,0.14096 12.63889,-2.84806 11.85767,4.95538 -2.95588,7.95307 7.27939,5.25286 11.15875,6.09646 4.3655,0.88415 3.33716,-6.79622 10.51599,-6.86708 0.60766,-5.09228 -11.69497,-1.85857 -15.80512,-4.63149 -4.28749,-3.53505 -5.59659,-7.88328 -9.69488,-9.16851 3.59261,-3.23182 0.91489,-11.53613 -4.4,-7.8 -7.52208,-1.91237 3.21681,-7.46258 7.05873,-7.3267 4.72427,-3.06644 15.3483,-1.37944 14.14127,-8.8733 2.32928,-4.77331 2.91961,-14.39285 10.4,-11.8 3.14031,4.01591 8.88519,-6.68665 14,1.3 z"
         id="path25"
         inkscape:connector-curvature="0" />
    </g>
    <!-- COMPOSE END -->
    <!-- COMPOSE BEGIN -->
    <g
       id="bayelsa">
      <path
         d="m 164.4,518.6 c 0.30712,-0.0516 -0.0516,0.30712 0,0 z m -20,-1.7 c 0.26346,-0.0229 -0.15885,0.38155 0,0 z m 12.3,-0.1 c 0.30535,0.82385 -0.49112,0.033 0,0 z m -7.3,0 c 0.22775,1.88749 3.86456,0.59214 4.2,1.7 0.68778,-0.58938 1.72252,0.50517 0.9,1.1 -2.0854,-0.2661 -4.99182,1.22906 -5.6,-0.3 0.24992,-0.92469 -0.69967,-1.87023 0.5,-2.5 z m -4.9,-0.3 c -0.4657,1.17411 0.0888,0.0924 0,0 z m -0.2,-0.2 0,0.1 0,-0.1 z m 11.9,-0.3 c 0.0902,1.34538 -0.87703,0.49511 0,0 z m -4.5,-0.5 c 0.044,0.97218 -0.53158,0.22654 0,0 z m 4.4,0 c -0.10285,0.5143 -0.43507,0.2116 0,0 z m -13,0 c 0.0516,0.30712 -0.30712,-0.0516 0,0 z m 15.3,-0.4 c 1.73324,1.5036 -3.40193,2.72933 -1,0.9 0.49066,-0.1087 0.42994,-0.8404 1,-0.9 z m -0.4,0 c -0.0516,-0.30712 0.30712,0.0516 0,0 z m -10.7,-0.6 c 1.25252,0.6777 1.12452,3.70322 0.3,1.4 0.12026,1.51454 -1.29599,-1.51113 -0.3,-1.2 l 0,-0.1 0,-0.1 z m 3.7,-0.1 c 1.68359,1.98585 -1.64239,2.67619 -2.3,1.7 -0.32591,-1.10843 1.52163,-1.3466 2.3,-1.7 z m 8.3,-0.2 c 1.58956,0.2375 0.67283,2.28931 2.5,2.6 0.29871,1.57912 -4.31163,1.12411 -0.8,1.1 0.57245,-1.31442 2.40795,0.1672 2.1,0.8 -2.27948,-0.0791 -5.17764,0.95812 -7.6,0.2 0.43217,-1.57619 1.25886,-1.63137 1.8,-0.7 -1.11646,0.18246 -0.16713,-2.47482 0.8,-1.1 -0.71081,0.52091 0.20496,0.86609 0.2,-0.5 1.56703,-0.76396 -0.95962,-1.74582 1,-2.4 z M 151,514 c -0.18813,0.81601 -0.17962,0.25053 -0.1,0 l 0.1,0 z m 23.7,0 c 0.76262,0.65272 -0.5383,0.81454 0,0 z m -35.3,-0.2 c -0.32913,0.12348 0.042,0.22185 0,0 z m 16.9,-0.3 c 0.74455,1.00153 -0.78448,0.78592 0,0 z m -8.6,-0.7 c 0.49873,0.24429 -0.36569,0.42736 0,0 z m 11.9,-0.4 c 2.81074,3.15279 -4.03756,1.41564 0,0 z m 0.4,-0.1 c 0.72341,0.70554 -0.14998,0.76957 0,0 z m 10.5,-0.4 c 1.2371,1.36239 0.63624,2.92237 0.2,4.5 -0.89951,0.55672 -1.00282,-1.15895 -1.4,-2.1 -1.72875,-0.73738 -0.3378,-2.27102 0.5,-1.7 0.68133,0.0308 0.66908,-0.0244 0.7,-0.7 z m -38.4,-1.4 c 1.70842,0.99546 2.01372,1.97199 0,0 z m 40,-1.1 c -0.34324,0.55923 -0.23591,0.38602 0,0 z m -0.7,-0.1 c 1.53293,-0.0657 -0.71078,1.20067 0,0 z m 1.6,-1.5 c 0.39525,1.67449 2.74619,2.91396 0.2,3.3 -0.96275,-1.31411 -2.26232,-2.55409 -0.2,-3.3 z m -19.4,0 c 1.03023,1.25691 -0.17947,1.95535 0.6,3.7 -0.67208,1.18787 1.78644,2.6225 -0.3,2.4 -0.33052,-1.64559 -1.41481,-2.69705 -0.5,-4.9 0.25837,-0.2738 -0.64008,-0.93955 0.2,-1.2 z m 17.8,-1.7 c 1.26726,0.44777 0.79536,1.81326 0.6,2.4 -0.24686,2.8558 -1.76623,-2.34519 -0.6,-2.4 z m -0.8,-1 c 0.51043,-0.0776 -0.0108,0.30684 0,0 z m -35.1,-0.7 c 1.74678,0.007 -0.98135,0.35021 0,0 z m -14,-8.5 c 0.74684,2.25265 2.35146,4.08985 4.8,3.8 1.29334,0.28471 1.8306,0.2966 2.5,0.4 1.66741,-0.47337 1.47531,1.0564 2.5,1 0.95639,-0.0835 0.71364,-1.8889 2.3,-0.7 1.54961,0.005 2.45027,-0.67649 1.5,0.5 -1.09807,1.42043 -3.1136,3.27191 -4.9,4 -0.67556,-1.27825 -4.78846,0.21942 -3.2,-1.8 1.08563,-0.93262 2.06914,0.33931 0.5,-0.6 -0.45699,0.92098 -1.91602,-1.55655 -0.5,0.1 -0.18683,1.35841 -2.64648,-0.92926 -3,-2.3 -0.81959,-1.32332 -2.56827,-2.8627 -2.5,-4.4 z m -0.8,-1.1 c 0.0424,0.52585 0.13428,0.22042 0,0 z m 49.9,-16.3 c 3.65359,1.45604 -0.22539,4.30985 -0.7,5.6 -1.68794,2.4525 -5.25212,2.56029 -6.4,6.6 -0.92415,3.66514 0.45981,4.4543 -1.5,8.8 2.92776,2.96418 3.27519,5.24546 8.8,2.5 1.84313,1.25002 3.73526,5.85634 5.8,5.6 0.0554,1.66299 -2.10745,3.6081 -1,5.8 0.31844,2.58003 -1.63269,-2.3186 -1.3,-2.6 1.3726,-0.73247 -2.40039,-3.06266 -0.7,-3.7 0.38061,-0.95889 -1.24208,2.10414 -1.4,-0.1 0.19899,-0.61757 -0.97473,-1.09648 -0.5,-2.2 0.87332,2.07812 -3.34744,-1.36721 -1,0.4 1.22544,0.62512 -0.29416,2.28641 0.3,3 1.00215,1.98615 -1.2312,0.37082 -0.9,0.3 0.63074,0.99161 1.04867,0.76901 1.6,1.4 1.04399,0.83785 3.68268,2.6731 2.4,3.9 -1.68098,-0.0371 -0.3854,0.12849 0.2,0.4 1.25164,1.28607 1.10153,1.52896 1.6,3.2 -1.62411,0.0911 -4.56464,1.21171 -4.3,-0.5 0.57397,1.02876 4.0313,-0.79101 1.6,0.2 -1.72252,0.0581 -2.07308,-0.0277 -1.8,-2.3 1.18252,-2.43087 -1.49648,-3.11149 -2.4,-4.4 1.83863,-0.725 -0.75505,-1.34043 -0.2,-2.3 -0.29609,-1.02199 1.21558,-2.95644 0.4,-1.9 -0.0271,0.69862 -1.06996,1.54822 -0.4,2.4 0.0975,0.72439 1.74796,1.82807 -0.5,1.5 0.0156,-0.94408 -0.093,-1.53689 0,-0.4 -0.42185,0.89905 -0.71228,0.52953 0.4,0.8 0.51498,1.15195 2.88851,1.71805 0.8,2.3 -0.5906,-0.82982 -2.87259,0.48629 -2.8,-2.3 0.22539,-0.92216 -1.7039,-3.36214 -0.3,-1.1 0.0531,1.2735 -0.0893,0.69198 0.5,2.8 1.95468,0.0299 0.88917,1.86914 2.4,2.2 -0.42352,1.48787 0.87193,1.13153 0.8,2.4 2.80985,0.6144 -3.4128,1.11976 -3.2,0.7 1.86644,0.46417 6.38834,-0.0471 2.1,0.5 -2.4406,-0.10798 -5.52764,1.40449 -4.9,-1.5 -0.18399,-1.58169 0.96142,-1.52353 1.4,-2.3 0.0997,-1.49704 1.06837,-1.84366 0.2,-2.5 0.98353,0.43891 -0.2731,2.36824 -0.8,2.9 -0.76844,-1.11251 -0.40757,-4.54639 -0.6,-2.8 0.20492,1.31477 0.336,3.14914 -0.5,4.6 1.41146,1.36166 -2.00802,1.60207 -1,0 0.41891,-0.81931 -0.0817,-1.85809 0,-1.3 0.28696,-0.19532 0.0637,3.35433 -0.9,1.4 -2.77102,-1.00012 -0.49627,-2.89664 -1.9,-4.4 1.3206,-0.0737 0.0114,-2.92271 0.2,-3.4 -1.44878,-2.64199 1.07855,1.71573 0,2 -1.21245,-1.80699 -0.67335,-1.19939 -0.1,0.2 1.24861,0.58765 -0.9353,2.44375 -0.6,0.3 -0.77881,-1.37961 0.94798,2.31239 -0.9,1.5 0.11044,-0.53707 -0.42352,0.70749 -0.3,-0.4 0.23329,0.33831 -1.15586,-0.30936 -0.7,-1 0.32263,1.69488 1.89,3.38095 -0.8,4.4 -0.11242,-1.46409 -0.47436,-3.31243 -0.1,-4.1 0.60267,-1.277 -0.80176,2.38297 -1,-0.2 0.75956,-1.52616 1.09065,-2.87234 2.2,-3 -0.70648,-1.86118 -0.31865,-0.68788 -0.2,0.3 -1.46572,-0.34771 -0.56841,0.2148 -1.7,0 0.15269,-0.65774 1.02764,1.4948 0,1.6 -0.73734,1.42323 -1.22634,-0.70088 -0.5,1.1 0.0911,0.99289 1.44479,4.05611 0.1,3.4 -1.38358,-1.09082 -0.62808,-0.502 -0.6,-1.5 -1.3606,-0.55549 -0.42698,-2.67773 -1.1,-3.7 0.48815,-1.1069 -0.42345,-2.8552 -0.3,-2.2 -0.47799,1.28503 -0.87791,3.15192 -0.4,4.7 -0.21405,1.53943 1.40186,2.30709 2.4,3 -0.44685,2.23613 -1.65126,-0.11019 -1.4,0.9 0.63103,-0.79759 1.34821,1.18568 -0.1,2.1 -0.86913,0.84502 -0.34449,-0.84237 -0.1,-1 -0.15956,-1.62003 -0.28639,-0.4388 -0.1,-0.1 0.57077,1.08253 -1.86672,0.11883 -0.8,0.9 -1.456,0.5669 -1.00438,-1.139 -2,-0.1 -1.67822,0.26956 -2.02231,-1.86328 -0.1,-1.3 2.08824,-0.86162 -0.73234,-2.1706 1.1,-3.2 -1.57696,-1.00699 1.14046,-4.52946 -0.5,-2 0.0416,1.45999 0.53612,3.48043 -0.3,1.7 -1.32832,-1.54945 1.45738,-3.42779 0.5,-5 0.34961,-0.9471 -0.33987,-1.781 0,-0.3 0.35912,1.43042 -0.69708,3.05155 -1.1,4.8 1.9764,1.41046 -2.26026,2.8745 -1,1.1 1.60372,-1.39346 -0.7985,-2.02584 0.4,-2.4 0.68017,-1.5749 0.42903,-3.47283 0.4,-1.4 -0.2781,2.67598 -1.49822,0.85415 -1.2,0.8 -0.59872,0.87416 2.0351,2.2356 0,3 -0.11094,0.58467 0.11126,1.48233 -0.7,1.5 -1.73113,1.04458 -0.34907,-1.87387 -1.2,-2.4 -2.33611,-0.81592 2.84594,-4.44998 1,-3.6 -0.4239,1.30461 -3.11668,2.94678 -0.7,4.2 -0.218,2.63146 -2.02991,0.49701 -0.8,2.3 0.006,1.02833 1.70704,2.3756 1.2,3.8 -1.85437,-0.31012 -5.06083,-1.03384 -3.4,-2.8 -0.91341,-0.60131 0.44091,-2.12879 -0.7,-0.8 -1.09222,0.53704 -0.53641,-4.09819 -2.1,-3.1 2.53766,0.71486 0.22095,2.96338 1.9,4.1 -0.21254,1.57847 -3.19665,-0.78301 -4.4,-1.1 -1.50603,-0.84285 -0.0649,-1.52538 0.4,-0.6 1.36732,-0.99469 -0.65906,0.47206 -0.7,-0.6 -1.5602,-0.28875 2.72122,-1.27872 2.1,-1.6 -1.24051,-0.52625 -0.13938,-2.33679 -0.6,-0.6 0.9039,0.63651 0.0798,1.45358 -1.1,0.3 1.32157,-0.12261 -0.85846,-0.55915 0.8,-1 -0.72212,0.0902 -0.75234,0.70881 -0.5,1 -0.61298,0.0366 1.00436,1.27863 -0.8,1.1 -0.0685,-0.50385 -1.20568,0.6077 -0.9,1 -1.28676,-0.7972 -2.67999,-1.62552 -0.6,-2.1 0.3099,-0.93532 1.50198,-2.28314 2,-2.2 -1.46142,-0.0507 -2.1883,3.13609 -3.3,2.4 0.41366,-0.7935 -0.25937,-0.92585 0.5,-1.4 0.81139,-0.61247 1.0006,-1.88646 0.4,-0.3 -0.93612,0.49986 -0.77083,0.91552 -0.9,1.6 -1.76862,-0.37754 -1.83706,-0.53374 -0.5,0.2 -0.42518,3e-4 -3.74901,-1.8067 -1,-2.3 2.22474,0.10844 2.52265,-1.28972 2.9,-2.6 -0.12791,0.24626 0.66206,-1.42396 -0.5,0.5 0.84625,1.65462 -2.52878,2.13629 -1.4,1 0.14671,-0.38165 -0.40905,1.20822 -2,1.4 -1.36641,-0.0715 -2.94402,-1.19397 -1,-1 1.73498,0.24433 1.24267,-0.451 -0.4,0.2 -0.41536,-1.66984 1.10863,-1.87568 1.8,-1.9 1.24935,0.0719 -0.37299,0.17195 -1,0.1 -1.18818,0.52974 -1.58046,0.31879 -0.7,-0.6 0.48858,-2.03532 2.11371,0.29976 3,-0.8 0.90173,-0.41769 -1.69601,0.96385 -2,-0.3 -0.6529,0.45961 -1.12372,-1.37982 0.6,-1.1 1.13365,-1.36949 3.78198,-0.4224 1.3,-1 -0.71259,0.82116 -2.25062,0.88294 -2.7,1.7 0.30087,0.50188 -0.268,2.13384 -1,1.8 -0.48692,-0.69367 1.5509,2.83156 -0.9,1.3 -1.58152,-2.11275 -4.78331,-5.06535 -5.2,-6.7 0.7509,2.39247 3.53931,1.63418 5.4,2.4 0.602,-0.65629 3.01773,-2.35054 4,-3.5 1.79355,-0.29793 2.17226,-0.64064 0.4,0 -0.7857,-1.21369 2.2919,-1.63242 0.5,-1.6 -1.22706,-2.31424 0.80942,0.62439 -0.8,0.1 -0.99164,1.47589 -3.4034,-1.48498 -3.4,1.2 -1.37225,-0.14859 -0.71754,-1.54413 -2.8,-1.2 -1.55378,0.54176 0.56854,-1.50639 0.9,-1.5 -0.36491,-1.79586 3.11234,-0.26809 1.5,-1.5 -0.7638,0.87101 -1.5074,-0.80411 -0.4,-1 -1.11673,0.5804 -0.13133,1.29742 -1.4,2.4 0.26673,1.23946 -1.34782,-1.48556 -0.5,0.4 -1.0751,0.8705 -2.45321,1.13853 -3.3,0.3 0.34532,-1.09094 0.38654,-1.22473 0.3,-2.2 -0.13031,-1.44656 0.29233,3.80024 -1.9,2.2 -0.8735,-1.19713 -3.24611,-4.04957 -2.8,-4.3 0.0204,-1.90833 -2.76599,-4.87826 -2.8,-6.7 1.60747,-0.39653 2.38481,-0.0661 3.3,-0.2 4.17525,2.33819 9.3546,5.9758 13.6,2.3 2.99226,-0.46835 6.32549,-0.89205 7.8,-3.5 1.79302,1.95952 4.70044,2.67027 6.7,0.4 2.38144,0.63573 4.80921,-0.95937 4.7,-3 3.64323,2.05371 3.51488,-4.11527 7.4,-2.5 2.09212,0.25728 6.69064,-1.22024 5.3,-3.2 1.09672,0.27699 2.34293,-0.63379 3.4,0.1 z"
         id="path28"
         inkscape:connector-curvature="0" />
    </g>
    <!-- COMPOSE END -->
    <!-- COMPOSE BEGIN -->
    <g
       id="benue">
      <path
         d="m 270.4,379.3 c 4.64028,-1.49931 11.07283,2.12572 12.5,5.4 -4.54346,4.86305 1.55833,2.46163 4.9,1.6 8.50415,-1.45862 17.50129,0.51816 22.5,8 5.027,2.61075 8.0156,7.2222 3.9,12.3 2.04538,6.35469 -8.01144,6.42981 -7.8,12.9 -1.76076,5.34549 0.51183,12.30476 -2.8,16.8 -2.88985,-1.5054 -1.24655,4.09014 -5.2,2.8 -5.4485,-1.77938 -8.36156,-12.01124 -15.7,-8.6 -3.03799,0.85247 -9.66218,1.91217 -7.5,-2.9 -3.17667,-3.90921 -11.75476,-7.65033 -15.9,-3.4 1.31358,6.95286 -9.51896,0.8849 -12,5.9 -4.43819,0.0686 -5.20593,-7.67657 -9.5,-1 -8.03171,-3.22681 -5.05911,11.80055 -11.9939,4.90488 -1.42131,-3.00306 3.54868,-11.44839 -4.0061,-11.30488 -4.20647,4.49695 -11.56786,-3.27905 -11.1,-7.5 5.34974,6.27751 5.06942,-0.56992 10.2,-2 4.20125,-1.08404 7.47768,-11.22814 4.03835,-10.93178 -6.22976,-1.86903 0.0641,-11.89634 -5.63835,-14.86822 -5.58105,-8.44578 2.77017,-6.88156 8.77282,-5.4 7.51567,2.38129 15.11341,4.70311 22.32718,7.8 2.50242,-3.64096 -6.98989,-10.88772 0.6,-13.3 6.22282,-2.65627 12.93186,2.9024 19.4,2.8 z"
         id="path31"
         inkscape:connector-curvature="0" />
    </g>
    <!-- COMPOSE END -->
    <!-- COMPOSE BEGIN -->
    <g
       id="borno">
      <path
         d="m 466.1,166.9 c -0.78556,3.10849 2.93033,7.78912 2,8.5 -2.29069,0.1042 3.90801,5.07463 3.1,4.4 1.99685,4.75472 6.77203,7.07765 10.9,8.5 -1.0195,0.65736 -2.30162,-0.41413 -0.9,1.6 1.788,2.49032 6.10507,-3.97584 7.2,-2.7 -0.0957,2.26907 0.77654,1.32366 -1.3,2.5 -1.56539,0.47671 -1.78846,2.88404 -3,4.7 2.99567,-0.0375 -1.01883,4.7078 1.7,4.4 -3.58867,0.78558 2.07046,1.47859 -0.7,2.5 0.60062,0.0683 -0.91732,1.49669 0.4,2.2 -1.47634,1.4769 -0.36197,0.41224 1.2,3 0.95611,1.76198 3.15729,0.77604 4.1,2.7 3.11595,0.58296 1.85407,5.11829 5.7,3.8 0.49797,1.7528 6.01544,-1.88791 6.1,1.1 -2.8083,0.53761 2.17129,3.71575 3.8,2.5 0.43642,0.26585 4.37599,-0.002 7,0.2 0.95368,0.40863 3.85205,0.8281 3.1,2.5 2.89339,0.68283 0.53436,2.80106 3.6,2.9 -0.0564,2.64107 3.39276,-0.46674 3.5,2.4 -1.91748,1.69189 -1.32315,3.40475 -2.4,5.1 3.53726,3.09853 -1.67612,4.92183 -0.7,8 0.57685,2.54415 -5.38485,3.4227 -0.1,5.1 3.75734,1.99139 1.064,7.81576 -3.4,7.3 -3.73857,0.26305 -5.07332,4.00724 -9.1,4.1 -3.60883,1.22429 -7.60263,7.21254 -11.5,3.1 -3.45004,-2.30788 -4.54008,1.25966 -5.9,3.7 -1.5664,2.57551 -3.8754,4.1986 -5.6,7 -4.49348,0.97157 -7.19508,5.07348 -12.7,3.4 -6.17928,-3.03085 -2.09126,7.36899 -5.9,10.2 -0.55622,6.48889 -5.94997,10.63104 -11.06185,4.86639 -5.30828,-4.11801 -12.7165,-2.87904 -16.31993,2.40632 -4.31138,2.27305 -9.08672,5.89245 -15.24806,5.55525 -5.36977,4.27158 -9.03634,12.71543 -17.47016,10.17204 -6.11226,0.19122 -6.29705,-7.52829 -12,-7.8 -7.81001,-3.72479 2.1078,-9.12143 0,-13.4 7.62949,-0.83144 0.40386,-12.82836 9.2,-13 6.23084,-0.62221 14.71422,-3.81202 11.5,-11.6 1.20566,-5.53555 11.52916,-8.58505 7.4,-14.4 -9.14094,-0.17509 -1.19298,-5.24653 -2.6,-10.8 -1.96583,-6.25188 3.80464,-13.53489 0.2,-19.5 2.17286,-3.45866 12.66073,-8.36618 6,-12.9 -5.16903,-1.62298 -2.80971,-10.03454 -1.3,-11.8 3.48271,1.09201 3.85911,0.0678 3.9,-2 1.81702,-0.50782 2.86931,-0.63554 2.7,-2.5 -2.41088,-0.16391 1.0486,-0.5875 0.8,-2.6 0.87673,0.10363 2.65582,-1.50533 3.6,-0.8 0.88765,0.89115 2.39539,-1.48429 2.4,-1.1 1.5932,-0.44589 4.12577,-3.2318 4.9,-3.1 -0.84588,-1.42245 0.76577,-1.32937 1.3,-1.9 -0.66079,-1.79029 0.98347,-0.29975 0.9,-1.9 2.32069,1.12445 3.72935,-1.00422 5.8,-0.7 1.14567,-0.3857 3.4461,-2.10847 2.7,-0.3 2.02372,-0.0132 1.80989,0.11426 3.3,-0.9 -0.9957,2.37552 1.95989,-0.0587 2.2,1.1 0.65995,-1.04081 1.84461,-1.88308 1.9,-2.5 1.37355,-0.0358 -0.21119,-2.46024 2.4,-2.8 0.005,-0.98175 3.73358,-3.64161 2.7,-0.5 z"
         id="path34"
         inkscape:connector-curvature="0" />
    </g>
    <!-- COMPOSE END -->
    <!-- COMPOSE BEGIN -->
    <g
       id="cross_river">
      <path
         d="m 275.2,428.1 c -1.79801,5.16484 6.51022,2.60352 9.5,1.9 5.25997,-0.67802 9.42506,5.44554 11.6,9.1 -0.67909,2.03145 -0.61265,6.37235 -3.8,3.9 -2.4703,-1.05243 -1.16177,2.68236 -3.3,3.4 -1.21924,3.34176 -6.14756,2.92971 -7.3,6.5 -4.12896,3.46753 -8.80626,5.98886 -12.8,9.3 2.93993,1.71859 -1.50264,3.55246 -0.8,5 2.88605,1.9195 4.87885,4.46469 1.7,7.5 -2.26552,3.8784 -0.70646,9.82329 -3.6,13.6 -2.30195,0.79054 -3.01109,3.38565 -4.1,4.7 1.2165,0.54607 -2.05037,1.56964 -1.5,3.1 -4.27289,-0.0345 1.24179,4.90462 -3.4,3.9 -2.19262,-1.21675 -2.60185,4.30003 -1.5,1.2 0.2761,0.21932 0.64354,2.0504 -0.6,1.7 0.84565,1.34897 -1.26908,0.67242 -1,1.4 -2.5444,0.592 -1.53458,-1.4544 -1.2,-1.6 -0.36369,-1.3313 -3.52971,1.72239 -3.7,-0.8 2.15583,-0.84339 -2.26285,-1.54869 -3,0.1 -5.31546,-3.82157 -13.55758,-9.54318 -11.4,-17.5 -2.68499,-2.21682 -10.78181,-0.47804 -7.3,-5.2 7.11254,1.23406 -3.14832,-6.76373 0.1,-10.8 -1.81327,-2.31388 1.51494,-4.37376 1.4,-6.7 2.06402,-1.27999 2.73354,-3.75468 1.6,-5.6 2.37093,-1.85236 4.42655,-0.17525 5.5,1.9 1.95952,-1.49193 4.35092,-4.70165 6.9,-2.9 0.52378,-4.35561 4.96256,-6.54582 6.6,-10.3 -3.86534,-2.87357 2.22914,-3.10569 1.8,-5.4 -1.95927,-2.44709 -2.29292,-4.74445 -5.7,-6.9 -2.11983,-3.61916 6.28299,-5.57059 9.5,-4.5 5.87441,0.1456 2.74191,-7.37221 9.5,-5.8 3.18317,1.01803 9.44542,2.24737 10.3,5.8 z"
         id="path37"
         inkscape:connector-curvature="0" />
    </g>
    <!-- COMPOSE END -->
    <!-- COMPOSE BEGIN -->
    <g
       id="delta">
      <path
         d="m 118.7,481.5 c 0.41125,0.0732 -0.58127,0.28675 0,0 z m 5,-2 c 0.0191,0.13391 -0.92759,0.0308 0,0 z m -7.9,-0.2 c 1.79371,0.6215 1.53141,0.3945 4.1,0 1.2519,0.7838 -2.61428,2.55266 -1.2,2.5 1.02872,-1.81648 1.50677,-1.35622 2.1,-2.4 0.99357,0.9033 1.60649,1.7802 0.6,2.2 0.62259,-0.184 2.48014,-0.23126 1.5,1 0.27238,1.04543 -1.76823,1.48824 -1.9,2.9 -2.10831,0.75521 -1.49885,-2.57359 -1.7,-1.6 -0.43706,1.88737 1.81683,1.16526 2.3,2.8 0.52861,0.62124 -2.68719,0.59851 -3.5,0.9 -1.55891,-1.7691 -0.99855,-4.3806 -2.3,-7.2 0.26784,0.0555 -0.28414,-0.8713 0,-1.1 z m 7.7,-0.5 c 1.66948,1.10244 -3.71983,0.39005 -0.3,0 0.1,0 0.2,0 0.3,0 z m 0.4,-0.4 c 0.78935,0.37101 -1.02904,0.28254 0,0 z m 2.3,0 c 1.08952,0.29728 0.56929,0.71245 0,0 z m 2.4,0 c -0.41186,0.6786 -2.24069,0.4529 0,0 z m -3.4,0 c 0.28013,1.66706 -1.95259,0.29249 -1.6,0.3 0.82902,0.001 0.76501,-0.27819 1.6,-0.3 z m -1.2,-0.3 c 2.75482,0.50245 -1.27151,0.49014 0,0 z m -0.1,0 -0.1,0 0.1,0 z m 0.4,-0.3 c 0.85984,0.25077 -0.67014,0.6732 0,0 z m 5.3,-0.1 c -0.0492,0.30769 -0.46117,0.21391 0,0 z m 0.8,-0.8 c 2.35516,0.47224 3.23377,2.35977 0.6,3.2 -1.22821,-0.51559 -1.81444,-0.97313 -2.9,0.3 -1.19539,-1.12376 -1.35469,-1.81718 0.4,-1.8 0.91071,-0.56847 0.99351,-0.62671 1.9,-1.7 z M 119,474.8 c 0.0516,0.30712 -0.30712,-0.0516 0,0 z m 6.1,-0.8 c 0.69774,1.39271 1.16887,1.24772 2.5,0.8 1.21684,0.0539 2.40224,-0.4698 2.6,1.2 0.91661,0.8232 -2.61552,4.06278 -3.2,1.3 1.27994,-0.33236 2.24912,-0.20398 0,-0.2 0.95819,1.24011 0.51486,1.87809 -1.5,1.2 -2.69763,-1.0752 2.2177,-1.3969 0.9,-1.5 -0.75989,-0.54749 -0.0663,-0.0951 -1.6,0.6 -1.41781,-0.25028 -1.1591,-3.50744 0.3,-3.4 z m -5.6,-0.2 c 1.14835,1.57877 -2.01694,1.05758 0,0 z m 7.9,-0.4 c -0.54227,0.43111 -0.37333,0.29644 0,0 z m 0.9,-0.6 c 0.29452,1.12054 -0.81521,0.49555 0,0 z m -10.8,0 c 2.06089,-0.14777 1.41383,1.70515 1.1,2.2 -0.98176,0.41368 -1.85148,-1.76628 -1.1,-2.2 z m 13.7,0 c 1.56544,0.63647 -0.72854,0.007 0,0 z m -2.4,-0.1 c 1.29692,1.07524 2.9197,-0.71958 4.4,1.4 -0.31683,1.15306 -2.53749,2.63853 -3.1,1.6 -0.45059,-1.80169 -1.6577,-0.5261 -3.2,-0.9 -1.67664,1.17664 -1.56159,-1.42496 0.7,-0.8 2.71512,-0.44851 -0.54742,0.42369 1.2,-1.3 z m -16.7,-2.3 c 2.40466,-0.0157 2.6468,0.72316 3.7,0.6 2.08329,0.35647 2.28827,-0.29934 1.3,1.5 -0.2501,0.3941 0.73472,2.06148 0.1,2.4 -1.31196,-1.47953 -1.32135,-1.40513 -0.2,0 1.31512,-0.23864 2.57677,0.824 3,2.7 1.86066,1.45005 -4.00966,0.66495 -5,-0.1 -2.99664,-0.77453 -5.43401,-2.66702 -6.3,-5 1.04503,-0.63704 1.80729,-2.27299 3.4,-2.1 z m 10.8,0 c 1.79194,1.06868 -0.9409,2.92328 -1.1,2.5 0.44394,-1.07967 0.97861,1.64201 -0.9,2.3 -1.5078,0.87375 0.125,-1.39559 0,-1.2 -1.2744,-0.74684 1.77724,-1.90978 -0.2,-0.8 -0.29563,-1.34093 0.0782,0.909 -0.3,1.4 -0.44933,0.67191 0.0966,2.88791 -1.1,1 -0.4403,-0.72889 0.93904,-1.9484 0.3,-1.9 -1.27196,-1.1687 0.7236,-3.19058 2.1,-2.5 0.36688,-0.79113 1.96029,0.65268 1.2,-0.8 z m 1.6,-0.6 c 2.07225,1.1954 -2.69494,0.81964 -1.4,0.2 0.65867,0.0897 0.72267,0.0446 1.4,-0.2 z m 3.9,-0.2 c 1.36609,0.57783 0.58253,1.87692 1.9,2.4 0.11699,1.81837 -2.40537,-0.38693 -3.5,1.6 -0.0524,-2.00369 0.37951,0.84448 -1.1,-0.9 -0.8223,0.0109 -0.5882,-0.92939 -0.4,0.2 1.96205,0.0665 0.41889,1.12762 -1,0.5 0.49128,0.36883 -1.64943,1.97977 -1.4,3.5 -0.37073,2.19069 -4.92725,-0.42437 -1.5,-0.7 0.74527,0.29827 0.73396,-1.40316 0.2,0.1 -2.64284,-0.1672 1.40452,-1.83234 0.6,-3 0.6825,-0.61916 2.23801,-2.42084 1.6,-1.9 -0.24661,-1.2536 2.90779,-1.09946 3.1,-0.2 0.14631,-1.85982 1.21512,0.68907 1.4,-1.5 l 0,-0.1 0.1,0 z m 0.8,-0.3 c 1.04669,0.27007 -0.85586,1.24293 0,0.1 l 0,-0.1 z m -9.6,-0.2 c 2.1368,-0.42285 4.47971,1.41219 2.1,2.1 -0.81084,-0.73962 -2.77087,0.63465 -2.9,1.8 -1.19283,-0.50303 1.13512,-1.89918 -0.6,-0.3 0.88309,0.97906 -2.44732,-0.9118 0,-1.2 0.95314,-0.5734 0.84338,-1.69464 1.4,-2.4 z m 2.1,-4 c -0.007,1.82701 3.04809,1.17329 2.5,2 0.65615,1.72228 -2.4237,1.36852 -1.9,0.6 -0.83585,-1.26772 -2.55289,1.70851 -2.9,0.9 -0.24338,1.72467 -3.0183,2.84068 -4.2,0.9 0.26806,-1.39378 0.59278,-4.08687 2.1,-2.4 2.16041,0.0332 3.01718,-0.95404 4.4,-2 z m -7.3,-5.9 c 0.11672,1.28912 0.91729,0.62237 0.9,1.8 1.37483,0.86934 0.18611,1.84367 1.5,2 -1.38684,0.83428 0.0499,2.40096 -1.2,3.2 -1.09686,0.82244 -1.36767,0.36914 0.1,0.4 -1.46188,1.09431 -0.36053,4.12063 -3.3,3 -1.44956,0.63997 -3.63298,0.29174 -2.4,0.8 -2.22567,0.5863 -3.93891,-3.13776 -4.9,-4.8 -0.34238,-1.26362 1.29293,-4.18255 2.9,-2.1 0.49273,1.41956 1.08382,1.78317 2,2.6 0.27764,0.16472 2.97764,1.44444 2.2,0.3 0.29797,1.20167 -2.2346,-0.39132 -2.8,-0.9 -0.63051,-1.65429 1.10882,-1.49498 -0.2,-1.3 0.087,2.22559 -2.47995,-2.34427 0.1,-2.3 0.59383,-1.61394 4.74631,-1.46774 2.5,0.3 -1.17455,1.12718 -0.0237,1.41659 0.9,1.7 -1.50783,0.57431 0.26106,-2.29145 -0.7,-0.6 -1.75985,-0.62697 1.47137,-1.47136 0.7,-3 0.55591,-0.31994 0.62301,-1.03218 1.7,-1.1 z m 60.2,-21.8 c 1.35247,5.50599 4.67678,10.96473 2.8,16.7 -0.91869,4.39592 -4.32663,9.10392 -5.4,12.7 2.06574,4.18729 -4.24891,5.3854 -2.7,9.6 -4.78834,-0.005 -0.0109,3.37591 -3.2,4.3 -2.97519,1.8419 -7.82256,-0.64604 -8.7,3.5 -1.63114,0.66039 -4.0847,-1.16779 -3.2,1.9 -2.23689,1.54098 -5.0496,0.48959 -6.7,2.5 -2.92263,0.5635 -4.60095,-4.02442 -6.3,0.2 -3.35259,0.88549 -6.46612,1.6316 -9.7,3 -3.12571,-0.29141 -7.56412,-2.01003 -10,-4.2 0.55921,-0.91281 1.62918,-1.62515 1.6,-1.6 -0.70553,1.06703 -2.69943,-0.0777 -1,-1.4 0.74695,0.0561 2.35516,-0.59309 2.2,-0.5 0.0538,-0.75106 -2.30761,1.32924 -2.5,-0.1 1.51947,-0.35081 0.91769,-1.907 2.8,-1.4 0.57075,-1.49363 1.8953,-0.11923 1.9,0 -0.81105,-1.85966 -1.38271,0.16933 -2.9,-0.1 -0.3544,-0.0278 -0.78944,-1.9109 -1.8,-0.9 0.0849,-0.66304 1.44051,-1.62245 1.8,-0.6 2.07692,0.30302 -0.97739,-0.31766 0.2,-0.8 -0.29355,0.61423 -1.30469,0.55791 -2.1,-0.1 1.53638,-1.02938 5.0239,-0.25064 4,-0.9 -1.4302,-1.77206 3.05632,0.76891 1,0.3 1.68879,-0.12596 0.75268,2.26977 0.9,1.8 0.69377,-0.38876 3.38129,0.6756 0.9,0.1 -1.23319,-0.27679 0.29248,-1.73921 1.3,-1.9 0.98601,1.74599 4.51988,-0.92182 2.4,-1.7 -0.34983,-0.60239 -3.37025,-1.3947 -0.6,-1.9 0.72304,-0.0176 2.35459,-2.57347 1.1,-2.3 -0.32376,-1.13395 -2.39395,-0.57173 -2.7,-1.8 -0.94019,-0.91517 -1.14212,-1.9213 0.3,-2.3 0.3669,-0.97945 1.44829,-1.52486 0.2,-0.5 -0.71685,1.70748 -1.12872,-0.368 -1.8,0.9 -0.93887,-0.44601 -0.61486,1.68157 -1.5,0.4 -0.51097,1.49167 -0.84978,-0.0528 -1.9,-0.2 -0.2832,-1.65825 2.02988,-0.4221 2.2,-2.2 1.24766,0.12681 3.10863,-0.30875 0.9,-0.2 -1.74466,1.34663 0.002,-2.85019 -1,-0.7 0.29259,1.2665 -1.3934,2.2419 -2.4,2.3 -0.41154,1.11236 -3.54038,-0.21947 -1.7,-0.6 -0.23019,0.85186 -2.0806,0.563 -2.7,-0.7 1.33151,-0.80735 1.49541,-0.61264 1.9,0.3 2.06616,0.87385 1.06907,-1.95961 3.1,-0.8 -0.20632,-0.85157 1.08189,-2.2393 -0.2,-0.7 0.72829,1.69243 -1.66621,-0.34739 -1.7,-1.2 -1.47105,-1.91447 1.83302,-0.18935 1.1,-1.4 -1.68272,0.0349 -0.10596,-2.74391 -0.1,-0.8 2.20747,0.70156 1.00225,0.62661 -0.2,-0.5 -0.26813,-0.78589 -1.25391,1.57004 0.5,1.6 -0.9412,-0.20372 -2.58861,0.29906 -0.9,1.5 -1.48653,2.11686 -2.30915,-3.03545 -3.6,-0.3 -0.82805,1.59531 -5.06391,1.396 -4.4,-0.1 0.71841,-0.56223 -0.54004,-3.06198 1.6,-2.6 0.93019,-1.21344 3.06013,-1.08718 4.1,-0.3 0.90851,0.0641 -2.05338,-1.14394 -2.7,-0.5 -0.97312,0.0141 -2.9031,1.28323 -3.1,0.1 0.31005,-1.39621 -1.36718,-1.44975 -1.1,-2.4 -0.56683,0.0223 -0.4833,-2.1309 -1.9,-0.6 -2.69802,1.50198 -6.33341,2.06659 -8.2,4.4 -1.36555,1.36181 -2.1349,-2.22842 -3,-2.7 1.79906,-4.96627 5.66127,-14.37099 10,-6.5 -1.54163,8.42515 4.11552,1.34445 5.8,0.5 4.84861,-0.20399 7.52399,1.94826 11.9,-1.1 4.00473,1.20266 9.51786,4.18829 11.2,7.4 -3.35843,4.63915 4.08803,4.83121 7.4,2.2 2.01079,-3.11295 9.15657,-4.92861 6.1,-8.9 -4.37121,-1.14798 -5.48662,-6.63038 -6.6,-9.9 2.09347,-6.20728 5.76383,4.0226 7.9,-1.4 5.8975,-2.13589 11.45475,-6.83815 17.9,-6.2 0.9471,-0.85179 0.869,-1.72018 1.2,0.3 z"
         id="path40"
         inkscape:connector-curvature="0" />
    </g>
    <!-- COMPOSE END -->
    <!-- COMPOSE BEGIN -->
    <g
       id="ebonyi">
      <path
         d="m 244,429.1 c 0.99145,3.89861 6.27375,5.94701 6.4,9.3 4.25741,2.98229 -5.1067,3.26962 -0.6,6.8 -2.06936,3.46891 -5.9508,5.79897 -6.6,10 -2.80739,-2.31318 -5.17704,2.67129 -7.5,2.6 0.0512,-3.87506 -7.22833,-2.50641 -4.1,0.6 -0.8339,2.25698 -3.15446,3.71093 -3.2,6 -1.74541,5.53383 -4.73613,-0.24952 -6.9,-1.9 -3.90496,-0.51881 -11.78315,1.50284 -9.4,-4.8 0.54924,-3.71254 5.37718,0.19039 6.5,0.9 -1.36041,-4.17732 3.51764,-6.36893 1.5,-10.8 -2.23857,-4.06682 2.83335,-8.84029 -0.2,-13.5 -2.14486,-4.3943 7.08767,-1.89589 7.90887,1.27605 4.72665,-0.13963 3.95312,-7.95348 10.69113,-7.47605 2.36294,-1.33807 5.41745,-3.80277 5.5,1 z"
         id="path43"
         inkscape:connector-curvature="0" />
    </g>
    <!-- COMPOSE END -->
    <!-- COMPOSE BEGIN -->
    <g
       id="edo">
      <path
         d="m 146.5,397 c 1.94464,0.29451 3.98787,1.0842 3.9,2.5 -2.01067,4.88464 4.68268,2.05043 6.4,1.7 2.18416,2.34353 4.92516,3.32643 7.9,2.9 1.54261,2.80139 2.49601,6.23369 6.2,4.2 4.20602,-1.08988 6.40615,6.06411 3.5,9.1 1.25594,3.96187 -3.89335,6.50633 -2,9.9 -2.02476,3.04351 5.51304,9.76621 -0.8,10 -5.89436,-0.19542 -10.9858,4.19343 -16.3,6.2 -1.95218,4.67478 -6.88712,-5.23976 -7.8,2.1 1.78345,3.30322 3.16812,8.46028 7.5,9.7 0.15915,4.60899 -5.57908,5.89801 -8.4,9.1 -6.93578,3.16321 -6.25904,-1.64867 -7.1,-4.8 -3.85751,-3.11096 -10.3052,-8.57474 -14.6,-3.3 -4.42727,-2.00039 -9.48508,-2.53699 -10.6,2 -5.29538,2.8213 0.20452,-8.63336 -7.6,-7.4 -0.17475,-3.13896 -4.47127,-3.71229 -5.9,-6.1 -0.36361,-1.99575 4.08239,-2.857 4.2,-5.7 5.00943,-2.75099 -1.81959,-6.04674 0.2,-8.6 1.16767,-3.00796 4.48156,-4.31768 5.3,-7.2 4.55684,0.28044 10.99066,-1.74565 14.8,1.2 -3.03421,1.46281 0.4542,6.72749 2.5,3 3.10485,1.06021 6.70186,0.36553 6.4,-4.3 3.78335,-0.52541 -1.07542,-4.82619 2.7,-6.9 2.18905,-2.14271 2.20932,-7.88125 6.3,-9.1 -0.063,-1.93938 1.19825,-5.08408 -1.1,-5.6 -0.6835,-3.05291 3.82092,-1.8667 4.4,-4.6 z"
         id="path46"
         inkscape:connector-curvature="0" />
    </g>
    <!-- COMPOSE END -->
    <!-- COMPOSE BEGIN -->
    <g
       id="ekiti">
      <path
         d="m 124.4,378.4 c 0.64494,-0.93047 -1.46601,4.95556 1.7,2.3 3.71741,-1.60576 6.55057,0.71831 2.1,3.1 -0.77478,5.22793 7.08255,4.26558 8.5,6.8 -1.81905,1.47895 -3.94262,-0.28285 -5.8,2.7 -4.58122,3.68569 -2.97398,12.2858 -9.8,14.3 -5.0129,2.31146 -2.7055,-8.0192 -8.5,-5.4 -3.85403,-1.29458 -10.22286,2.06211 -12.1,-1.1 -2.53891,-4.84592 -3.78065,-10.4516 -1.4,-15.4 4.07358,0.21548 4.42588,-7.84677 6.8,-4.7 3.71044,-2.08505 6.27104,2.71738 10.4,0.9 1.17689,-1.69489 3.64456,-4.73168 7.7,-3.6 0.13903,0.009 0.29187,-0.0401 0.4,0.1 z"
         id="path49"
         inkscape:connector-curvature="0" />
    </g>
    <!-- COMPOSE END -->
    <!-- COMPOSE BEGIN -->
    <g
       id="enugu">
      <path
         d="m 208.9,414.5 c 3.08335,2.40402 3.72681,8.64477 9.1,9.5 4.27256,-2.90242 11.05905,0.53579 7.7,6.7 -2.16014,3.51861 -9.03878,-0.72642 -5.4,5.4 2.11314,4.91058 -2.79169,8.87796 0.1,13.6 -0.17548,3.11219 -2.37322,6.26404 -2.2,9 -2.26429,-3.69614 -5.75706,-1.22443 -8.4,-3.8 -3.10645,0.17484 -5.0307,0.55945 -7.2,-1 -4.21231,1.79072 -4.45403,-5.25152 -5.8,-6.9 -2.13295,0.76457 -3.1697,-1.08425 -1.6,-2.7 -1.22467,-2.59564 -2.77563,-5.02387 -5.8,-5.5 -0.71677,-3.50729 7.86072,-6.68402 2.2,-8.7 -2.72775,-1.09509 -7.45852,0.0861 -6.8,-3.6 1.47007,-3.27103 2.68087,-3.03223 3.8,-0.4 3.47984,0.86202 5.51402,-4.85709 9.4,-5.2 2.79523,-2.99574 6.55812,-7.24612 10.9,-6.4 z"
         id="path52"
         inkscape:connector-curvature="0" />
    </g>
    <!-- COMPOSE END -->
    <!-- COMPOSE BEGIN -->
    <g
       id="federal_capital_territory">
      <path
         d="m 215.2,332.3 c 2.97341,-0.59342 -1.94894,2.60365 -1.5,4.4 -1.14713,4.90011 0.57544,9.95829 -2.3,14.6 -1.0812,10.96565 -14.15759,13.51842 -23.5,14.2 -3.47828,-0.14476 -9.80177,2.31101 -9.9,-3.4 0.93571,-8.73037 -0.92706,-18.38511 0.3,-27 6.32861,-0.85173 12.66731,-0.84467 16.9,4.7 4.46059,-1.32793 5.40456,-9.71818 11.5,-7.9 3.49653,3.26572 5.84094,-4.65723 7.6,-0.2 0.68931,0.0706 -0.1899,0.93614 0.9,0.6 z"
         id="path55"
         inkscape:connector-curvature="0" />
    </g>
    <!-- COMPOSE END -->
    <!-- COMPOSE BEGIN -->
    <g
       id="gombe">
      <path
         d="m 373.9,257.1 c 4.63413,1.89114 10.21349,7.82005 11.4,10.5 6.91625,0.79543 1.7652,9.97012 3.4,14.7 5.26104,0.68464 8.12732,4.59502 2,9.6 0.59418,6.05604 8.70015,4.32586 9.7,10 5.93661,1.21582 4.61825,9.34331 2.15114,12.82109 -8.91233,6.53099 -19.75226,7.49117 -30.45114,6.87891 -5.50151,1.4263 -6.30456,-0.85155 -8.4,-5.3 1.33487,-8.525 -9.7606,-8.72326 -12.7,-14.7 5.42269,-1.57651 6.83092,-5.69875 5.1,-11.4 -4.73511,-2.37134 -6.75523,-5.53552 -9.18178,-9.77271 -8.47053,-0.85105 1.90015,-7.09193 1.04093,-12.14839 3.04005,-3.61904 8.03628,-4.69027 11.71075,-7.98029 4.05834,-3.30963 8.52248,-6.97488 14.2301,-3.19861 z"
         id="path58"
         inkscape:connector-curvature="0" />
    </g>
    <!-- COMPOSE END -->
    <!-- COMPOSE BEGIN -->
    <g
       id="imo">
      <path
         d="m 200.6,459.1 c 4.87176,-0.33363 6.94832,5.23558 5.1,8.3 1.98786,3.71101 -0.0575,8.53789 -3.3,11.3 -1.34792,3.77318 -2.15021,9.68519 -7.6,6.8 -5.01471,0.58815 -10.71958,0.7385 -15.5,-1.1 -3.57029,-2.77746 -1.19659,-5.8269 -2.1,-9.4 -6.67024,2.40363 -4.37304,-5.10777 -2.3,-8 2.21222,-2.25835 4.66504,-4.43329 7.8,-2 3.97172,-1.30496 3.16552,-8.14256 9.3,-6.5 2.97607,1.45697 6.22326,-0.95433 8.6,0.6 z"
         id="path61"
         inkscape:connector-curvature="0" />
    </g>
    <!-- COMPOSE END -->
    <!-- COMPOSE BEGIN -->
    <g
       id="jigawa">
      <path
         d="m 330.6,199.1 c 2.99558,2.39161 10.51207,-1.72455 13.43981,3.13573 2.04318,5.52113 3.36853,11.34653 -4.13981,12.46427 -3.30036,-2.56998 -10.77719,-0.82361 -10.8,6.3 -1.92547,6.27641 -2.42195,11.27643 -10.43481,11.5087 -4.90425,3.14827 -13.27435,1.33978 -15.2413,7.43381 0.52778,4.49715 9.74811,-2.68218 8.67611,5.05749 -3.46467,6.62947 1.97819,4.68993 4.18637,9.70084 4.0606,7.46621 14.41257,4.18603 20.51363,6.99916 -4.29439,3.20374 -9.16439,6.32476 -10.54251,8.72389 -3.50941,-1.96627 -14.10374,2.38132 -12.06596,-5.46287 1.68519,-7.33194 -5.57481,-6.78987 -10.49153,-5.86102 -4.31057,-2.99792 -9.727,-1.68066 -15.6,-3.7 -8.1669,-1.56744 9.26414,-8.55898 -0.40002,-10.30002 -3.00856,-4.51803 -9.07623,-3.31951 -3.29998,-9.69998 2.36795,-6.14525 -1.98651,-7.74265 -6.7,-5.1 0.85013,-4.67625 -7.81373,0.5151 -4,-4.5 1.94918,-5.55061 -3.13747,-6.32887 -7,-6.7 1.05959,-3.72584 -3.72389,-4.03799 -4.4,-6.7 0.75137,-4.46373 -6.34442,-3.95296 -9.3,-3.4 -3.78308,-0.56099 -3.18973,5.23388 -5.4,5 -1.28884,-4.07792 -3.90048,-8.53844 -9,-7.6 -2.70731,-1.95133 -1.23059,-9.34638 3.6,-7.3 4.69764,-0.049 9.73717,-0.21 14.1,0.1 0.43884,3.41596 4.10167,6.15063 7,4.4 3.34483,3.14217 8.8461,-1.37224 11,-4.1 3.01957,-2.3421 8.70941,-0.0977 12.7,-0.4 5.53776,0.47219 11.46302,0.26591 17.4,0.8 5.36218,1.46118 9.39253,-1.73307 14,-4.7 5.38686,-1.28239 12.01849,-5.26409 12.2,3.9 z"
         id="path64"
         inkscape:connector-curvature="0" />
    </g>
    <!-- COMPOSE END -->
    <!-- COMPOSE BEGIN -->
    <g
       id="kaduna">
      <path
         d="m 238.6,250.1 c -4.41021,6.28414 4.78682,5.81395 7.4,9.7 7.08932,-0.50505 14.19122,7.24363 10,14 2.76076,5.90955 -7.74783,8.32922 3.4,8.9 6.30696,2.30175 3.96412,4.64996 4.8,8.5 6.53868,3.61063 -2.88806,6.02383 -3.6,10.1 2.43123,5.02421 -1.764,8.08081 -0.8,13.7 -0.9697,3.28235 -4.93729,6.65351 -2.7,10.5 2.21499,3.28288 7.78702,5.89957 4.1,10.3 -2.42728,1.73402 -4.86158,10.3307 -8.7,6.9 -1.63914,-3.59024 -5.49059,-4.03106 -8.6,-5.1 -1.95336,1.56509 -5.60078,7.99387 -8.1,4.5 1.1612,-3.95798 -0.3026,-7.63784 -3.7,-8.8 0.0267,-3.64909 -5.23415,-4.44804 -5.6,-0.4 -2.51092,3.04207 -5.49402,-1.02529 -8.2,-0.2 -0.54658,-3.33281 -4.24782,1.75082 -4.7,-2.5 -2.81572,2.08586 -5.77323,2.3476 -10,1.8 -2.71617,0.68498 -4.4699,0.58436 -3.1,-2.4 -5.8978,-2.56438 4.0194,-5.92343 2.8,-9.3 -2.60839,-3.28116 -6.57817,-4.17531 -1.4,-7.4 0.31693,-5.76054 -1.94231,-8.82108 -7.9,-7.4 -4.15105,1.21564 -14.08851,-2.8515 -6.6,-6.1 9.96871,-4.65708 -2.96911,-4.90136 -0.1206,-10.57034 -3.93582,-2.55975 -4.68509,-6.55074 -9.7794,-6.72966 -0.0786,3.17242 -9.09961,4.84415 -11.1,1.6 -6.05541,0.009 -9.15548,7.64241 -13.9,8.5 -5.99393,-3.44653 0.43982,-7.81906 -2.4,-12.4 -0.59528,-5.742 4.76615,-5.99455 7.3,-9.7 5.24935,-6.61058 18.38011,1.99345 20.8,-8.6 0.48275,-5.68585 10.30242,-8.99513 12.2,-3.8 -5.32972,2.1908 5.51892,6.43749 7.9,5.6 0.24857,-4.16366 0.91393,-6.3744 7.2,-4.9 0.42847,-6.6874 9.10065,-3.9402 11.9,-0.5 4.5668,-2.64518 8.7021,-3.21125 13.2,-6.5 2.21458,-1.16055 5.65263,-2.54245 8,-1.3 z"
         id="path67"
         inkscape:connector-curvature="0" />
    </g>
    <!-- COMPOSE END -->
    <!-- COMPOSE BEGIN -->
    <g
       id="kano">
      <path
         d="m 263.7,214.3 c 4.25611,0.5996 1.09386,6.57419 6.2,5.5 5.78006,-2.30719 3.96462,13.36008 3.4,8.3 2.87358,-1.26511 4.56053,3.8915 8.2,1.4 4.50305,-3.22774 4.55353,8.01947 0.4,9.6 0.57164,3.07899 6.23371,5.15376 9.6,8.4 -5.68345,2.01259 -4.01198,9.56465 -10.4,9 -6.54429,-1.59171 -8.63603,9.73459 -15.4,8.6 -5.18017,6.43258 3.564,11.76774 1.6,17.3 -3.16984,6.933 -8.16726,-1.4772 -12.9,-0.3 -0.0616,-3.05964 2.76227,-7.00866 3,-12.7 -0.2185,-6.3446 -6.81014,-9.42451 -12.1,-10.1 -4.08237,-3.18929 -9.66608,-4.18705 -7.5,-9.7 -6.62301,-1.48407 -11.94169,8.93781 -17.8,3.2 -2.613,-3.89453 0.53078,-7.99342 4.8,-8.5 3.17317,0.009 4.1081,-1.06071 2,-3.8 -0.67126,-3.80444 -2.03454,-7.34245 -1.4,-11.2 -0.0676,-4.54354 -1.67759,-10.51802 4.4,-11.5 5.16379,-0.52404 9.50044,-2.6374 10.5,-8 4.18958,-3.99283 6.37101,2.62074 8,4.4 1.12686,-6.25547 9.56256,-6.79556 13.9,-4 0.20711,1.46009 -0.66749,3.83021 1.5,4.1 z"
         id="path70"
         inkscape:connector-curvature="0" />
    </g>
    <!-- COMPOSE END -->
    <!-- COMPOSE BEGIN -->
    <g
       id="katsina">
      <path
         d="m 227,179.8 c 5.812,0.14842 11.04315,1.56115 15.7,4.5 3.98653,1.42135 6.14675,7.43558 10.9,5.5 5.40261,0.0747 6.1453,6.07485 11.2,6.2 3.07122,1.03019 8.88008,1.42324 9.9,3.4 -2.81455,2.23367 -5.68405,5.96145 -10.4,5.3 -1.29985,-2.28548 -4.85355,0.94564 -6.7,-2.3 -0.6844,-6.68178 -7.95333,-1.46363 -12.1,-3.7 -4.17257,0.30169 -9.17157,-0.13698 -8.2,5.5 -0.6643,4.38322 8.49512,1.05487 6.9,4.6 -6.12483,-1.358 -4.03165,7.88298 -9.8,7.8 -5.08644,0.70488 -11.87325,3.26671 -8.9,9.8 -0.34321,4.28235 -0.27907,7.64912 0.7,11.6 0.11134,2.99573 4.3201,6.84239 -1.4,6.3 -4.35152,0.4552 -7.5767,4.90033 -4.6,8.7 6.19697,1.61166 -3.48123,7.66056 -5.3,2.9 -4.52051,-3.94982 -8.81479,-0.20555 -10.8,2.9 -7.88114,-3.48758 -3.10937,2.92396 -6.6,5 -4.46842,-1.79827 -11.4675,-3.08373 -7.5,-7.8 -8.31994,1.29695 -2.62725,-5.71128 -6.5,-9.4 0.14062,-4.60516 1.53597,-10.02605 7.36958,-8.39068 3.99421,1.67696 3.98018,-5.53248 7.73042,-3.50932 3.21637,-3.88318 -8.28719,-4.00026 -3.6,-8.2 1.78414,-5.99321 -3.34865,-11.00131 -3,-17.1 -0.69953,-5.47194 -2.22518,-12.15954 0,-17.1 4.58732,-0.49623 6.53007,-6.2414 11.8,-3.7 7.99508,-0.26655 14.16638,-7.49929 21.7,-9 l 0.3,0.1 1.2,0.1 z"
         id="path73"
         inkscape:connector-curvature="0" />
    </g>
    <!-- COMPOSE END -->
    <!-- COMPOSE BEGIN -->
    <g
       id="kebbi">
      <path
         d="m 73.8,184.5 c 4.685546,2.96928 10.563329,5.22208 16,5.7 0.867651,-2.76638 5.669008,-3.55209 3.3,0.2 -1.023316,3.33152 -2.473372,6.38134 0.6,9.1 -0.716213,5.10027 0.290514,10.14234 0.5,15.4 -1.328429,2.57168 -11.476116,-2.10914 -9.7,5.87282 -0.09422,7.89505 1.328263,15.97263 -3.5,22.92718 -0.534768,6.3379 6.130007,3.71484 8.6,0.7 3.973478,-0.94333 8.792191,-4.14827 11.9,-1.3 4.10173,-2.06962 9.18785,2.4052 12.3,-2.3 4.51349,-0.80878 5.71046,2.19584 9.6,2.9 5.28806,3.4693 13.60771,-2.92207 18.2,2.9 -4.66324,7.47152 6.42633,7.47535 4.7,15.5 -0.91177,1.58127 -6.91656,4.26286 -11.31653,5.27432 -3.91723,1.43601 -11.72195,4.72251 -14.18347,0.72568 0.84492,-5.44367 -3.72111,-9.04303 -6.2,-12.7 -7.88,-0.24881 -17.348545,0.6533 -23.7,5.5 2.680527,6.54621 15.66662,1.52246 14,10.8 -0.73662,3.70942 1.33128,8.92562 -7.7,8.6 -6.324975,-1.17917 -4.228683,9.56983 -0.451365,11.82937 C 98.829717,299.89719 84.235926,294.46533 85.6,302.3 c -7.661995,1.55733 -0.186977,-6.65762 -5.2,-8.2 -3.115239,-5.21618 2.017143,-9.55423 6.6,-10.8 2.850072,-2.03231 5.564489,-9.10706 2.7,-11.5 -5.645542,-0.95989 -10.632305,-6.81579 -17,-4.1 -7.67761,-0.31359 -15.865945,1.68451 -22.5,-3.6 -4.170381,-0.88576 -7.794594,-1.23781 -11,-4.7 -5.695042,-2.67158 -0.554255,-10.1327 0.2,-15 1.041846,-3.59202 7.604116,-5.24749 2.2,-8.4 -2.025629,-3.45418 4.126038,-4.10622 1.2,-7.5 -1.753792,-5.67721 1.327341,-11.40338 -0.4,-17.2 4.838747,-5.62053 13.353158,-8.11431 17,-15.2 3.163573,-2.98628 4.404721,-7.51745 4.3,-11.8 3.405231,0.59952 7.526079,-0.89159 10.1,0.2 z"
         id="path76"
         inkscape:connector-curvature="0" />
    </g>
    <!-- COMPOSE END -->
    <!-- COMPOSE BEGIN -->
    <g
       id="kogi">
      <path
         d="m 167.6,366.8 c 2.91326,1.31434 5.56799,8.7493 8.5,6 -0.43157,-3.087 2.50572,-1.68662 2.1,-3.3 1.06878,-1.19669 3.22252,-2.32633 4,-3.8 3.50105,0.0103 7.62843,-0.89806 4.2,3.5 4.3936,4.35451 1.61419,10.63711 -0.3,15.7 3.20957,1.73094 10.24815,-4.7717 15.4481,-4.24962 5.10047,-1.5192 12.10502,-1.52456 16.1519,0.14962 -1.78992,5.71494 6.11107,7.9398 4,13.6 -2.15993,7.06672 6.94821,7.11996 4.1,10.9 0.51911,6.07746 -5.24784,7.77464 -9.2,10.2 1.00628,5.79729 -7.53051,-0.7304 -6.4,-0.3 -5.46948,-3.27148 -9.62663,4.18409 -13.9,6.5 -3.40232,1.69755 -7.68782,7.78856 -9.3,2 -1.85439,3.56621 -7.27122,5.43606 -6.9,10.4 -1.84652,2.56686 -7.48763,2.86781 -6.5,-1.4 -2.26196,-2.97579 -1.80422,-7.28058 -0.5,-9.9 1.38763,-3.8467 3.36715,-8.1676 2,-12.2 -1.82004,-3.71022 -4.71575,-2.14707 -7.9,-1.7 -1.03508,-2.76347 -2.63085,-6.49546 -6.5,-4.6 -2.4386,-2.461 -4.86409,-4.36372 -8.3,-1.6 -3.62568,0.4012 -1.55466,-3.391 -2.2,-4.1 -1.51025,-1.17868 -3.53254,-1.32447 -5.4,-3.4 -3.74738,-0.7125 -2.08695,-4.9387 -4,-5.7 -4.32154,1.13049 -10.23883,-0.53054 -12.3,-4 -1.31108,-2.62374 5.5588,-5.63694 -0.3,-5.2 -2.29304,0.15705 -5.03671,2.52103 -4,-1.7 4.15691,-2.50029 -3.98015,-3.92669 -4.7,-6.2 -6.31135,-3.78402 2.07589,-9.88883 5.8,-11.6 5.53733,6.53269 15.35506,4.32229 22.8,6.1 4.85549,-1.63376 1.51463,-12.19074 7.4,-12.9 5.89952,1.24835 6.91531,7.23511 9.6,11.2 0.91434,0.51321 1.9092,0.7155 2.5,1.6 z"
         id="path79"
         inkscape:connector-curvature="0" />
    </g>
    <!-- COMPOSE END -->
    <!-- COMPOSE BEGIN -->
    <g
       id="kwara">
      <path
         d="m 56.5,300.5 c 7.20789,3.54735 11.49753,12.0731 18.3,16.6 5.28093,-0.0387 -2.206699,10.97925 4.5,10.4 5.406898,-2.54175 4.230964,2.00072 5.8,4.7 2.793144,1.69677 6.55812,1.57937 5.9,5.9 3.725345,4.15099 9.61002,-4.1297 14.1,0.3 4.39948,1.5664 6.23496,7.96895 11.6,5.3 7.83518,0.74555 14.25698,6.86876 21.3,9.6 5.39794,0.0485 11.36121,-1.29373 16.3,0.6 -4.61682,3.11433 -1.24473,12.47435 -7.1,13 -7.43368,-1.69541 -16.90842,-0.11763 -22.4,-6.1 -3.69076,2.38591 -11.70553,8.13632 -5,11.8 0.60896,1.96336 8.683,4.08812 4.3,5.7 -3.5691,-0.62725 -6.91248,0.98946 -7.4,3.7 -3.22472,0.74494 -5.92596,-0.58285 -8.5,-1.7 -3.16248,1.62354 -4.08512,-1.91821 -7.7,-0.3 -0.920793,-4.49257 -7.1313,-0.16431 -8.1,-1.4 -4.705919,1.52745 -12.899448,3.12931 -13.6,-3.8 -1.846279,-2.93056 -6.645998,-5.24393 -6.4,-10 -2.05115,-4.42653 -8.754002,-10.13664 -4.8,-15.1 0.76501,-1.1091 8.00333,-5.63905 3.6,-5.6 -4.789856,1.82259 -9.77126,-1.12524 -14.2,-3 -1.464365,-3.6796 -7.024774,-6.5282 -9.4,-2 -0.910163,7.173 -10.11885,6.20989 -14.6,10.4 -3.55169,1.33038 -7.705986,4.74111 -11.2,2.4 -4.172986,1.51911 -7.946775,5.07242 -11.2,7 -2.5117902,0.1327 -5.54087,0.39271 -7.1,1.9 -0.00454,-3.34667 0.036084,-6.03376 -0.7,-9.1 2.3729748,-1.52129 0.4000809,-4.36919 1.8,-5.4 0.8895596,-2.58774 -0.074453,-2.79164 0.3,-5.3 3.6168594,0.67282 6.579457,-1.8892 9.9,-0.3 3.863427,-0.084 4.780274,-3.8043 5.4,-7 3.220525,-2.31335 -2.537497,-8.41254 2.7,-9.6 2.240242,-2.02015 2.195636,-6.19765 5.6,-5.6 3.119033,-1.22129 -2.263215,-5.81979 2.5,-6.4 3.604134,-1.42667 7.771923,0.0567 9.4,-4.2 0.770789,-2.8254 0.822531,-5.54664 3.3,-6.9 4.16589,-0.84188 8.69189,-0.62206 12.8,-0.5 z"
         id="path82"
         inkscape:connector-curvature="0" />
    </g>
    <!-- COMPOSE END -->
    <!-- COMPOSE BEGIN -->
    <g
       id="lagos">
      <path
         d="m 26.1,429.3 c 2.913378,0.19975 5.074572,3.62167 7.5,2 0.414045,-3.71158 8.139643,-0.21085 11.3,-1.4 5.23925,0.90561 13.09424,-1.35508 17.2,1 -2.609725,0.85923 -2.190671,4.40104 0.2,4.3 1.396826,-2.10088 7.427318,-1.62241 4.4,0.8 -3.044516,0.21581 -2.109888,2.92477 0.6,2.6 1.402178,1.65742 7.776543,-0.40247 5.3,3.1 -6.289999,-0.44791 -11.275696,-1.73967 -17.4,-2.2 -5.531628,-0.80262 -8.915435,0.53831 -15.1,0.3 -1.886934,0.36495 -8.88449,-0.58799 -8.2,1.2 -2.695847,-0.66094 -6.044707,-0.36806 -7.6,-0.5 -6.919881,0.38871 -14.7955346,0.11048 -22.5,1.1 -1.60711965,-4.66607 3.1249231,-3.50983 5.4,-3.3 2.141285,-1.81259 2.7378811,-2.68326 5.9,-2.1 3.046844,-0.4789 7.346322,1.26186 9.5,-1 -0.07911,-2.49941 2.42159,-2.78293 2.5,-5.3 0.426628,-0.66881 0.0946,-0.64103 1,-0.6 z"
         id="path85"
         inkscape:connector-curvature="0" />
    </g>
    <!-- COMPOSE END -->
    <!-- COMPOSE BEGIN -->
    <g
       id="nassarawa">
      <path
         d="m 232.9,334.1 c 5.88421,0.16622 0.11251,9.12422 4.9,9.1 3.53466,-0.83793 4.9157,-7.65322 8.5,-4.6 4.8601,-1.28736 5.81145,8.29205 10.3,3.7 2.52879,-4.02005 3.63999,-7.89983 8.5,-5.2 0.71965,3.51641 3.08715,6.67596 7.5,5.9 2.62339,-0.27766 8.44569,-1.42682 5.9,3.1 -1.86203,3.53574 -8.66112,4.42531 -7.1,8.9 3.40596,1.60253 -0.1881,6.84405 4.1,7.3 7.50655,5.17121 16.12034,-2.81756 23.52852,2.26325 6.53649,0.90346 2.39036,8.31359 -2.32852,5.43675 -2.92035,-0.87319 -7.06876,-2.70699 -7.6,2.2 2.99234,1.2323 3.5773,5.60015 2.2,7.3 -3.92387,1.16018 -7.59648,7.15955 -11.05869,2.45448 C 275.3854,376.83355 268.53917,380.72204 262.3,377.6 c -4.48962,-2.31467 -14.60304,-3.63018 -14.3,3.7 3.31059,4.18171 4.30332,11.52432 -2.34181,6.34381 -8.11243,-2.23147 -15.91536,-5.9542 -24.57586,-6.71441 -11.73274,-3.46053 -24.57797,0.20632 -34.88233,4.8706 0.76102,-5.24657 5.23758,-11.61248 0.4,-16 -0.25714,-6.90386 8.99441,-4.27465 13.7,-6.5 7.27038,-1.48261 10.65996,-8.03553 12,-14.4 2.74625,-4.81265 -1.55216,-12.28515 3.8,-15.6 -0.0827,-3.55145 1.76746,-1.02004 2.9,-0.5 2.42139,-0.63053 5.88445,3.40569 7.7,-0.4 0.91666,-4.35092 5.9064,-1.63547 5.7,1.6 l 0.3,0 0.2,0.1 z"
         id="path88"
         inkscape:connector-curvature="0" />
    </g>
    <!-- COMPOSE END -->
    <!-- COMPOSE BEGIN -->
    <g
       id="niger">
      <path
         d="m 110.9,255.1 c 6.82213,-1.43067 6.85575,6.77398 10,9.97282 -2.1385,7.90785 9.43523,4.37861 13.3,2.52718 4.94779,0.24504 8.23664,-5.46363 12.3,-3.5 2.48135,3.54606 9.06278,8.69857 3.9,12.8 2.60077,4.5357 -3.29629,10.48734 1.05567,13.13338 3.01131,5.94699 7.12371,-4.73589 11.74433,-5.43338 5.14406,-0.62819 7.89775,1.36882 13.9,0 1.98721,-7.76129 5.2031,3.45063 9.2,2.2 -2.2253,6.6004 7.81502,6.10777 3.7,10.8 -6.58791,1.95565 -6.54107,8.03057 1.1,8 3.63277,0.54352 11.46486,-2.36314 10,4 1.41157,6.87928 -3.97013,4.99502 0.1,9.7 6.48465,2.1205 -4.09486,6.19633 -2.4,9.4 3.70233,0.82608 -0.76199,4.87812 3.5,3.6 -2.48516,1.98638 -4.19662,7.74196 -7.5,7.2 -4.09934,-5.49747 -10.7329,-5.28782 -16.8,-4.2 -0.0825,9.36473 -0.25536,19.47011 0.56922,28.43844 0.14916,2.91053 4.95614,1.5182 1.83078,4.16156 -2.53296,-0.16723 -1.50159,3.42315 -3.3,2.3 -0.72936,2.5229 -2.08342,5.19178 -4.6,1.8 -2.86515,-5.19718 -9.61974,-6.36682 -10.3,-12.7 -5.17178,-8.00737 -16.0372,-6.36651 -24.2,-6 -7.42406,-2.79817 -14.15678,-9.71831 -22.6,-9.5 -5.35199,2.12614 -7.01522,-6.11705 -12.5,-6.3 -3.796131,-2.0096 -9.978646,5.17743 -12,-0.1 0.999854,-5.2708 -7.236168,-2.64016 -6.8,-7.8 0.968129,-5.83885 -10.547462,1.5865 -7.6,-6.5 1.886951,-5.73634 -2.051677,-5.82548 -5.6,-9.1 -4.889667,-4.6571 -9.009669,-11.70898 -15.5,-13.8 -3.537723,0.18389 -9.132842,0.61414 -11.6,0.3 -0.153202,-2.36039 -6.615589,-4.55647 -2.3,-8.3 0.300701,-3.91488 4.434153,-3.85394 7.2,-1.6 0.328823,-3.99922 4.478467,-7.61898 2.1,-11.5 -4.452865,-1.83014 -3.172248,-5.86018 -2.9,-9.4 -1.163874,-2.49285 -3.0735,-2.89462 -1.8,-6.2 1.491698,-1.53952 7.75195,3.01758 11.107501,3.8025 8.183402,2.00196 17.086849,-1.76017 25.092499,1.1975 2.595878,3.60039 11.03101,1.60409 8.3,7.8 -0.171675,5.54132 -4.701233,8.02443 -9.2,9.9 -3.963189,3.44933 -0.67542,7.99341 1.1,10.8 -4.068333,5.66989 5.226172,7.40242 4.4,1.2 4.06935,-0.69586 13.99828,-1.87548 8.6,-7.8 -3.76507,-2.84537 -3.164701,-13.08693 3.4,-9.9 9.91346,-1.66516 3.42904,-5.51977 5.91379,-10.64022 C 104.55661,262.65199 93.16202,267.21276 90.9,260.9 c 5.148898,-4.68551 13.37944,-4.53106 20,-5.8 z"
         id="path91"
         inkscape:connector-curvature="0" />
    </g>
    <!-- COMPOSE END -->
    <!-- COMPOSE BEGIN -->
    <g
       id="ogun">
      <path
         d="m 11,391.2 c 0.112007,-2.5599 4.5005,-6.97248 3.8,-1 -1.958412,3.54666 -2.519892,7.04167 2.2,9 1.458205,6.95816 12.711667,9.80217 14.1,1.2 3.633509,-1.66996 4.174299,5.4497 8.6,1.8 5.709075,-2.18839 3.600437,4.48909 6.7,5.8 2.015705,1.67148 2.911003,6.55568 -0.8,7.8 1.349427,1.81664 7.196667,0.15846 10.1,-0.1 2.815821,-1.71543 6.508406,-1.47681 9.3,-2.7 -0.360634,6.7128 6.519135,-1.27345 8.2,4 0.345572,3.88058 3.796694,1.36556 6.4,1.2 5.129445,-1.95656 2.539823,5.90234 0,7.1 -4.921672,0.84161 -9.613708,9.88103 -1.6,9.2 2.599035,0.3559 6.497744,-5.11553 5.4,0.8 3.074203,5.47155 -11.225998,4.90095 -1.1,6.6 1.147352,3.55023 -4.30921,1.08731 -5.8,0.6 -1.301661,-0.75518 -4.124031,0.28187 -3.5,-3 -2.900232,-0.24094 -6.800285,0.20938 -8.4,-2.4 2.0259,-0.46909 4.778834,-3.31395 1,-3.3 -2.486718,1.30338 -5.618398,2.21862 -5.4,-1.3 1.970803,-0.92452 2.642171,-3.0984 -0.672688,-2.41818 C 51.134908,430.38589 41.1775,429.07338 33.6,430.3 c 0.364782,2.80744 -3.890799,0.80967 -5.3,-0.3 -3.637801,-2.66956 -3.016492,1.74572 -4.9,2.9 -0.496398,2.74843 -2.572433,4.21556 -5.7,3.3 -2.621288,0.67424 -6.935347,-0.84527 -8.4,0.4 -1.5837638,2.652 -4.6833858,1.36228 -7.1,1.3 1.9960052,-2.92498 -0.6278415,-6.26877 3,-8.2 1.2257344,-3.29197 -4.79436772,-2.13669 -1.9,-5.9 1.0492143,-2.74564 -3.47801236,-4.91698 1.3,-6.7 -2.1205217,-1.37711 1.6864744,-4.78842 -0.5,-8 -2.4062614,-3.38389 0.5640054,-6.30142 1.6,-8.37282 C 1.7792752,398.06346 2.6169478,392.75329 2.5,388.1 c -4.4271045,-2.45167 -0.6238289,-5.12342 2.9,-6 6.50839,-0.90408 2.6021521,6.23373 5.6,9.1 z"
         id="path94"
         inkscape:connector-curvature="0" />
    </g>
    <!-- COMPOSE END -->
    <!-- COMPOSE BEGIN -->
    <g
       id="ondo">
      <path
         d="m 101.5,460.7 c 0.18741,0.16666 -0.022,0.40051 0,0 z m -0.3,-0.3 c 0.29276,0.15284 0.10659,0.34146 0,0 z m -0.4,-0.6 c 0.62759,0.79954 -0.13279,0.37912 0,0 z M 98.9,458 c 0.307688,0.0492 0.213911,0.46117 0,0 z m 43,-67.9 c -2.32081,4.32734 8.10747,5.5536 2.7,9 -2.55103,-0.25954 -3.41353,2.76879 -1,3.4 -0.45379,2.52213 0.43803,5.48968 -3.1,6.5 -1.68078,2.94131 -2.16723,6.79626 -4.9,8.5 -1.15536,2.69855 1.8348,5.01138 -1.4,5.7 0.30186,4.66553 -3.29515,5.36021 -6.4,4.3 -2.0458,3.72749 -5.53421,-1.53719 -2.5,-3 -3.80934,-2.94565 -10.24316,-0.91956 -14.8,-1.2 -1.23965,3.62298 -6.36606,5.54707 -5.7,10 4.29637,1.71511 0.55894,7.07196 -1.7,8.6 -2.0184,0.95739 -3.634972,3.76873 -0.2,4.5 1.41805,2.24187 6.15727,2.97534 2.67707,6.78458 -1.89175,2.92697 -3.23831,10.09876 -5.37707,6.11542 -0.609744,-0.63077 -2.593934,-2.78719 -2,-1.9 0.505679,0.34796 -2.368725,-2.36734 -3.4,-3.1 -4.410794,-3.84229 -9.831375,-7.3839 -15.2,-10.7 9.337383,-0.48759 -7.516573,-3.14394 2.2,-4.6 3.564972,0.63947 2.385348,-9.47135 -0.6,-5.8 -3.123011,3.95902 -11.763937,-0.8963 -5.8,-4.9 3.380446,-2.6235 7.525613,-4.71195 7.2,-9.5 3.2425,-1.51938 4.916381,-8.48438 9.7,-5.2 5.303605,4.45851 3.240871,-3.34593 4.1,-6.2 2.785073,-3.27737 5.28098,-4.72876 9.5,-5.3 4.59302,0.47743 11.91029,-2.09559 12,4.6 3.88494,3.67944 9.67196,-3.90413 9.9,-8.3 0.45858,-3.49303 4.22141,-6.76337 6.8,-7.3 1.48105,1.19515 5.01015,-3.51029 7.3,-1 z"
         id="path97"
         inkscape:connector-curvature="0" />
    </g>
    <!-- COMPOSE END -->
    <!-- COMPOSE BEGIN -->
    <g
       id="osun">
      <path
         d="m 99.8,378.8 c 3.02861,1.23033 7.17858,0.85692 2.2,5.2 -5.464818,1.32109 -3.820938,7.78882 -3.9,11.8 1.558502,3.49877 6.58912,9.86701 -0.5,9.4 -3.300957,2.22565 0.68581,9.27762 -3.2,9.7 -3.510173,-3.77955 -8.810776,-1.69408 -10,3 -2.130632,0.91594 -4.862496,0.55395 -7.9,0.5 -3.977426,3.92611 -2.602542,-6.32337 -7.6,-3.1 -4.198147,3.62724 -2.706325,-5.08252 -6.8,-1.4 -0.823147,-1.74242 1.456937,-7.27784 1.8,-10.7 2.201612,-4.22933 -3.023719,-6.189 -4.6,-9.2 3.42533,-1.87689 -0.527314,-9.9496 5.4,-6.6 3.024808,-0.14498 3.269798,-6.87178 7.1,-3.7 1.618471,4.12925 4.004759,3.05755 6.2,0.9 1.808779,-1.67352 5.97595,-0.84116 4.3,-4.9 3.807012,0.59914 9.258788,-0.89202 11.3,-0.9 1.957448,0.31096 4.922099,-2.47236 6.2,0 z"
         id="path100"
         inkscape:connector-curvature="0" />
    </g>
    <!-- COMPOSE END -->
    <!-- COMPOSE BEGIN -->
    <g
       id="oyo">
      <path
         d="m 51.6,336.6 c 4.316785,1.30598 6.100516,7.13257 11.5,6.9 2.836454,1.49973 6.694572,1.55319 9.3,0.5 0.394285,4.0728 -9.009398,5.47349 -5.6,11 2.44528,5.24703 5.879085,9.79946 7.6,15.3 3.556468,2.21313 4.730144,5.2774 6.5,8.9 3.391195,0.81751 1.163721,5.25322 -1.8,4.6 -2.023462,1.0719 -5.064514,5.4923 -6.7,0.6 -3.68323,-4.63194 -4.74864,2.59299 -7.7,3 -5.762004,-3.27162 -2.479378,5.10225 -5.3,7.2 3.626704,2.63397 6.544096,6.19279 3.9,10.8 -0.674617,3.90696 -0.539939,10.19298 -6,9.3 -3.384979,2.29996 -8.07391,1.59881 -11.9,1.8 2.832284,-2.34521 3.495506,-5.04052 1.6,-8.5 -4.222959,0.0213 -0.915407,-8.07606 -6.8,-5.8 -4.676013,3.09733 -5.128287,-2.2551 -8.9,-2.1 -1.453445,3.96974 -4.949365,8.24688 -9.6,4.8 -3.69575,-2.42483 -5.293059,-6.55584 -8.6,-9.4 -0.275218,-2.18464 4.467498,-7.84773 -0.1,-8.6 -1.851255,7.97604 -3.5967028,0.72743 -4.1,-3.8 -3.2434704,-4.40144 -10.2850611,5.38463 -7.3,-1.4 -0.037905,-3.61325 3.9766223,-7.94483 0.4,-10.5 -2.35426751,-4.18378 1.5083895,-6.60846 2.1,-9.8 -0.3060181,-3.49049 6.755676,-1.01359 8.1,-3.7 3.639477,-1.75092 6.658139,-5.83052 11,-5.8 3.030693,2.65697 7.578961,-2.0705 10.7,-3 4.849919,-3.73574 13.591674,-3.17601 14,-10.7 1.206294,-0.65841 2.331185,-1.47465 3.7,-1.6 z"
         id="path103"
         inkscape:connector-curvature="0" />
    </g>
    <!-- COMPOSE END -->
    <!-- COMPOSE BEGIN -->
    <g
       id="plateau">
      <path
         d="m 274.3,305 c 0.65901,3.64093 12.01772,-3.87016 10.4,4.7 -0.12422,4.42188 -3.67963,7.44801 2.7,9 1.60577,5.62962 9.42136,3.60692 13.8,4.5 5.74056,0.86892 10.15205,-4.05497 12.4,-7 -5.59895,-7.1262 5.83088,-2.36681 9.1,-0.9 7.27005,3.58011 16.37615,5.59097 22.2,10.8 -0.69223,5.98129 3.02608,10.93954 2.8,16.6 2.22178,6.60805 -8.26989,8.39436 -13.353,9.12375 -7.47603,-0.4878 -8.56756,8.81916 -15.647,9.87625 -3.97573,4.21427 -11.29556,8.43151 -16.52109,5.05114 -4.78118,-4.7286 -11.54942,-4.49816 -17.55173,-2.75114 -4.78501,0.38266 -13.10984,-0.80958 -11.52718,-7.1 -4.27503,-2.74861 -0.50378,-7.05955 3,-8.1 3.81707,-1.62864 3.84789,-8.41848 -0.9,-5.8 -4.18353,0.35225 -10.02608,-0.13966 -9.6,-5.6 -4.50936,-0.0869 -4.41955,-2.27213 -3.2,-5.8 -2.37365,-3.49678 -7.71014,-6.30815 -5.7,-11 3.17667,-3.23834 3.34964,-7.64815 3.5,-12.7 2.51025,-3.06577 -1.66897,-10.51214 5.7,-11.9 0.0636,-6.61592 10.48486,-1.7497 8.3,3.6 0.39825,1.73969 0.0484,3.59169 0.1,5.4 z"
         id="path106"
         inkscape:connector-curvature="0" />
    </g>
    <!-- COMPOSE END -->
    <!-- COMPOSE BEGIN -->
    <g
       id="rivers">
      <path
         d="m 187.6,515.9 c 0.0776,0.51043 -0.30684,-0.0108 0,0 z m -1.2,-2.3 c 1.48952,0.92908 0.21711,2.0368 -0.2,0.8 -1.20609,-0.22748 -0.45287,-0.54311 0.2,-0.8 z m 12.3,-0.3 c 0.27753,0.21175 -0.33701,0.0545 0,0 z m 0,-0.2 c 0.1586,0.0644 0.1586,0.0644 0,0 z m -13.9,-0.2 c 0.3784,1.82069 2.13928,1.46045 2.6,3.1 -2.1247,-0.34707 -5.11126,0.0133 -5.1,-2.4 1.05069,0.0987 1.38564,-0.1149 2.5,-0.7 z m -6.7,-0.1 c 0.42866,0.17122 -0.23473,0.17515 0,0 z m 24.6,-0.1 c 0,0.26488 0,0.26488 0,0 z m -4.6,-0.4 c 2.33668,1.5858 -3.25379,1.72312 -0.9,0.3 -0.20947,0.83416 1.25731,-0.43018 0.9,-0.3 z m 0,-0.1 c -0.50057,1.23119 -1.91465,-0.13561 0,0 z m 11.6,-0.2 c 0.16583,0.16778 -0.28689,0.38564 0,0 z m 0,0 c 0.0644,-0.1586 0.0644,-0.1586 0,0 z m -1.5,-0.7 c 0.0516,0.30712 -0.30712,-0.0516 0,0 z m -2.4,-0.1 c 0.4338,0.57969 2.07317,0.75952 2.1,0.8 1.67439,-0.13957 2.96717,0.63926 4.7,-0.2 0.11784,0.66995 2.45512,-0.94213 1.6,1.5 -3.98203,-0.51929 -7.73826,1.34617 -10.9,0 0.3964,-1.41723 0.71616,-1.24701 1.6,-1.1 1.34552,-0.45798 -2.32541,0.45262 0,-0.6 0.46699,-0.005 0.48555,-0.15707 0.9,-0.4 z m -7.7,1 c -1.75299,-0.48607 1.44643,-1.54095 1.7,-0.2 0.97148,0.19547 2.16937,0.66059 2.9,0.4 1.35367,2.82447 -2.33772,2.6686 -5,3.5 -1.33,0.45681 -4.50486,-0.71107 -2.3,-0.9 1.7221,0.52276 -1.60646,-0.50048 -0.1,-0.5 0.55335,-1.4905 1.15374,-1.13167 2.4,-0.8 1.26663,-0.56979 2.59096,0.4792 0.9,-0.8 -0.34099,-0.47119 0.0723,-1.05974 -0.5,-0.6 l 0,-0.1 z m 14.7,-1.1 c 1.66733,0.49407 -0.37728,1.48378 -0.3,0.6 -1.22665,1.23217 -3.37154,-0.79945 -0.6,0 0.68603,0.0473 0.27185,-0.51409 0.9,-0.6 z M 181.2,511 c 1.14243,0.50696 2.33327,1.38216 3.5,1.3 -0.22935,1.56062 -3.30995,1.62368 -3.4,-0.7 0.0882,-0.22607 -0.41376,-0.50194 -0.1,-0.6 z m 27.4,-0.1 c 0.35456,0.32748 -0.35461,0.27461 0,0 z m 1.2,0 c 0.57635,1.91468 -3.36042,0.30651 -0.8,0.4 0.20284,-0.16626 0.54973,-0.289 0.8,-0.4 z m -27.8,0 c 0.67792,0.70496 -1.64433,0.44373 0,0 z m 24.2,0 c 1.48735,0.69898 -1.37324,0.90312 0,0 z m -11.1,-0.2 c 0.28618,0.68543 -2.36722,2.35601 -1,0.5 0.51513,-0.43695 0.58935,-0.31729 1,-0.5 z m 0.1,-0.1 c 0.30712,-0.0516 -0.0516,0.30712 0,0 z m -19.3,-0.3 c 0.0439,0.75389 -0.37397,0.17198 0,0 z m 29.5,-0.2 c 1.1339,0.0639 -0.60772,0.82129 0,0 z m 2.3,0.6 c 1.08507,1.68652 -2.41375,0.76264 -0.8,-0.3 0.0843,-0.79201 0.28943,0.47511 0.8,0.3 z m -8.6,-0.6 c 0.74595,1.62218 2.77388,1.69111 4,1.4 -0.60272,1.85876 -3.06671,0.44152 -4.1,-0.1 -1.24115,0.0963 -0.7566,-0.98951 0.1,-1.3 z m 4,-0.1 c 0.63798,2.49516 -1.6051,0.0415 0,0 z m -16.7,-0.1 c 0.10642,0.41417 -0.32603,0.0231 0,0 z m 20.6,-0.1 c -0.49005,1.49277 -2.57781,1.05162 -0.4,0.4 -0.0824,-0.37257 0.16008,-0.3336 0.4,-0.4 z m -4,0 c 0.30712,-0.0516 -0.0516,0.30712 0,0 z m 5.3,0 0,0.1 0,-0.1 z m -6.6,0 c -0.46586,6.8e-4 -0.13869,-0.17416 0,0 z m -0.5,-0.1 c 0.94961,0.73922 1.17603,0.30436 1.7,1.4 -1.66226,0.48227 -2.00589,-0.63655 -1.7,-1.4 z m 5,0 c 0.27048,0.20009 -0.21924,0.84935 0,0 z m 1.1,-0.1 c 0.51569,0.19661 -0.49804,0.0293 0,0 z m -6.4,-0.1 c 0.70516,0.19776 -0.71795,0.741 0,0 z m 7.6,0.2 c -0.0328,-0.27212 0.10712,-0.33435 0,0 z m -2.1,-0.2 c 0.0516,0.30712 -0.30712,-0.0516 0,0 z m -2.1,-0.1 c 0.46022,0.3279 -0.27789,0.46138 0,0 z m -3.2,0 c -0.34568,0.14393 -0.56451,-0.063 0,0 z m 1.2,0 c 1.02027,0.10069 -0.0716,1.42064 0,0 z m -1.1,-0.1 c 0.16399,0.28475 -0.22606,0.15281 0,0 z m 7.6,0 c 0.35987,0.15112 -0.50447,0.12996 0,0 z m -7.9,0 c 0.13072,0.22484 -0.22484,-0.13072 0,0 z m 0.8,0.5 c 0.20055,-0.10179 -0.194,0.9834 -0.3,-0.4 -0.44751,-0.29541 1.19961,0.21234 0.4,0.4 l -0.1,0 z m 0.3,-0.6 c 0.0516,0.30712 -0.30712,-0.0516 0,0 z m 5.7,1.5 c -1.1771,-1.07952 0.48365,-0.10083 1.2,-1.2 -0.29999,1.4172 0.45565,-1.56588 1.6,0.3 0.95484,0.0788 2.92533,1.47031 1.1,1.6 -1.78392,0.009 -2.15114,0.85553 -1.8,-0.9 -0.27034,0.56157 -1.54409,0.4497 -2.1,0.2 z m -15.8,-1.5 c 2.39636,0.41239 1.9736,2.73257 1.4,4 -2.90101,-0.15815 -0.51679,-2.11758 -2.1,-3.5 -0.21028,-0.66221 0.14694,-0.28911 0.7,-0.5 z m -15.1,-0.1 c 0.0516,0.30712 -0.30712,-0.0516 0,0 z m 24.1,0 c -0.0813,0.4776 -0.46001,-0.0582 0,0 z m 3.5,-0.1 c 0.33858,0.35821 -0.42711,0.35805 0,0 z m -12,-0.1 c 0.37605,0.6933 -1.22162,-0.0274 0,0 z m 13.3,-0.1 c 0.84903,1.17558 -0.67383,1.39486 -0.6,2.6 -1.26401,-0.65143 0.63818,-2.38932 -0.6,-0.9 -0.86876,-1.07497 1.8569,-0.95664 0.3,-1.1 0.50503,-0.50163 -0.47894,-0.33738 0.9,-0.6 z m -0.1,-0.1 c -0.0644,0.1586 -0.0644,0.1586 0,0 z m -13.8,0 c 0.72736,0.58437 -1.20003,0.86786 0,0 z m 11.9,0 c 0.52188,0.11098 1.02547,4.07862 -0.2,1.9 0.44124,-1.25605 -0.43963,-0.6738 0.2,-1.9 z m -0.3,-0.2 c 0.70459,0.75839 -0.61004,0.61718 0,0 z m -2.6,0 c 0.0516,0.30712 -0.30712,-0.0516 0,0 z m 0.4,0 c 2.07979,0.88378 -1.46204,1.13039 0,0 z m -0.5,0 c -0.001,0.29116 -0.45386,-0.0611 0,0 z m 0,-0.1 c 0.30712,-0.0516 -0.0516,0.30712 0,0 z m 1.9,-0.1 c 1.03581,0.2488 0.80771,2.83763 -0.2,0.5 -0.24695,0.28392 0.0401,-0.46941 0.2,-0.5 z m -9.9,-0.2 c 0.7274,0.92777 2.8196,1.08371 3.7,2.5 0.0679,2.47109 -1.24443,1.01086 -0.9,2.2 -1.53365,0.32371 -2.48796,-0.30907 -1.2,-0.9 1.37055,-1.30524 1.60631,-2.38754 0.2,-1.1 0.0778,0.73468 -3.01308,-1.954 -1.8,-2.7 z m 10.1,0 c -0.1586,0.0644 -0.1586,0.0644 0,0 z m -1.2,-0.1 c 1.12559,0.66264 0.19977,1.68056 -0.1,0 l 0.1,0 z m -0.6,-0.1 c 0.30712,-0.0516 -0.0516,0.30712 0,0 z m 0.7,-0.1 c 1.02027,0.57861 0.50681,0.27112 0,0 z m -12.9,0 c 2.65803,0.15256 1.71412,2.07402 3.1,3.5 -1.47939,0.42619 -0.77765,-1.28315 -0.6,1 2.136,1.49445 -1.73661,2.05214 -1.5,0.9 -0.44586,-2.1174 -1.1135,-3.70815 -1,-5.4 z m -2.2,-0.1 c 1.94973,-0.0174 1.28257,2.63914 1.4,3.2 0.41249,-2.12512 -4.82324,-1.71493 -1.4,-3.2 z m -4.2,-0.2 c 1.02459,0.92554 2.43549,-0.54813 2.9,0.8 -0.57896,0.98749 3.29728,1.44882 2.5,3.1 0.5952,1.43979 0.98762,3.4594 1.9,3.8 -2.38598,2.69052 -2.288,-2.76414 -4.4,-1.5 -0.91784,-1.52365 1.12333,-3.30926 1.2,-3.5 -0.1847,-1.88457 -0.58614,2.51562 -1.7,-0.1 -1.11313,-1.64625 -1.10958,-1.9602 -0.3,-0.2 1.3576,1.18302 0.94166,2.59271 -0.6,2.3 -0.66996,0.13169 -1.46195,-1.06769 -1.6,-1.2 -0.35234,0.44481 -2.40222,-0.52265 -1.4,-2.5 0.53255,-0.31347 0.90756,-0.75894 1.5,-1 z m 6.6,-0.2 c 0.71661,0.43452 -0.79153,0.38525 0,0 z m 2.2,-0.2 c -0.79061,0.51598 1.02704,2.11291 -0.2,1.5 -1.27054,-0.97928 -1.74769,-0.96006 0.2,-1.5 z m 3,-0.6 c 1.02983,0.71075 -0.33975,1.28687 0,0 z m -3.7,0 c 2.13988,0.0613 0.008,2.6398 0.7,0.6 -0.39821,0.50552 -0.80583,-0.48794 -0.7,-0.6 z m 1.4,0 c 0.40275,1.18573 0.45572,3.34503 -0.4,1.3 0.44178,0.0561 -0.41723,-1.48177 0.4,-1.3 z m 6.9,-0.2 c -0.39784,0.77546 -0.76309,1.23832 0.8,2.5 -1.33354,1.03872 -4.0545,-2.87069 -1.8,-1.9 0.13094,-0.33567 0.89537,-0.0294 1,-0.6 z m -2.4,0 c 0.11055,0.27988 -0.18236,0.40008 0,0 z m -1.7,-0.5 c 1.77522,0.57824 2.62196,4.97513 -0.1,2.9 0.25915,-0.82511 -0.84179,-2.50916 0.1,-2.9 z m -13.3,-0.1 c 0.0745,0.78164 -1.65579,0.2152 -0.1,0 l 0.1,0 z m 17.3,-0.1 c 0.0443,1.89412 -1.50423,0.98467 0,0 z m -8.8,-0.1 c 0.97827,1.00852 0.64925,2.55209 -0.7,2.2 -0.55832,-1.99585 0.96066,0.0414 0.5,-1.2 0.11002,-0.50001 -0.96873,-0.50341 0.2,-1 z m -8.1,0 c 0.93728,1.00565 -1.21461,0.44102 0,0 z m 8,-0.1 c -0.13926,0.19134 -7.3e-4,0.0379 0,0 z m -1.2,0 c 1.03849,0.76036 -1.09264,0.61751 0,0 z m 4.9,-0.1 c 2.66417,0.60297 -0.88982,1.76551 0,0 z m -0.1,0 c -0.12204,0.96651 -1.4091,-0.0273 0,0 z m 2.3,-0.2 c 0.24476,0.1354 -0.29115,0.70864 0,0 z M 193,505 c 0.31139,0.0397 0.0694,0.2722 0,0 z m -4.7,-0.1 c 1.44995,-0.017 1.51718,2.79266 0.2,1.2 1.68275,-1.1652 -1.33222,-0.35807 -0.2,-1.2 z m -0.4,0 c 0.51569,0.19661 -0.49804,0.0293 0,0 z m 1,-0.1 c -0.23549,0.63391 -0.0443,0.14995 0,0 z m -1.8,-0.2 c 0.9832,0.31046 1.09689,3.80059 0.2,2.2 0.11888,-0.14608 -0.79444,1.36074 -1.6,-0.5 -0.93508,-1.43349 0.9272,-0.86583 1.4,-1.7 z m 1.5,0 c 0.47502,0.33574 -0.42639,0.45 0,0 z m 0.5,0 c 1.57519,0.70094 -0.18147,1.37499 0,0 z m -1.1,-0.1 c 1.34891,-0.22955 -0.53081,0.96512 0,0 z m 0.7,-0.3 c 0.94897,0.81302 -0.96037,0.40518 0,0 z m -0.7,0.3 c -0.80737,0.94666 -0.19556,-1.451 1,-0.4 -0.57604,0.33097 0.23207,-0.50404 -1,0.4 z m 3.9,2 c -1.65002,-1.4738 0.002,-0.38266 -0.7,0.1 -1.28009,-0.29002 -3.38256,-3.71974 -0.5,-2.7 2.15592,-0.50566 2.76119,2.7302 1.1,1.2 1.01815,0.0663 3.62088,2.74685 2.3,3.9 -1.00993,-0.86887 -2.28695,-0.56604 -2.1,-2.4 l 0,-0.1 -0.1,0 z m -9,-3 c 1.40178,0.83925 3.09427,2.96203 3,4.3 -1.16309,0.006 -0.88925,-0.80754 -2.1,-1.1 1.46884,0.55521 1.30718,1.05147 0,0.9 -1.34216,0.53868 -2.47989,-0.54245 -2.6,-1.5 1.99047,0.67362 0.078,-1.24468 0.6,-1.4 -0.13835,2.06822 -1.36024,-1.67064 0.1,-0.8 -0.17411,-0.28684 0.83574,-0.13073 1,-0.4 z m 9.2,-0.3 c 0.96778,1.54987 -3.75977,-0.0863 -0.3,0 0.1,0 0.2,0 0.3,0 z m -0.4,-0.2 c -0.32642,0.0169 0.22666,-0.26913 0,0 z m -8.3,-0.7 c -0.001,0.29116 -0.45386,-0.0611 0,0 z m 1.7,-0.5 c 0.0516,0.30712 -0.30712,-0.0516 0,0 z m 0.2,-0.1 c 0.30712,-0.0516 -0.0516,0.30712 0,0 z m 6.9,0 c 0.47454,1.17367 -1.0452,0.0871 0,0 z m -10.9,-0.1 c 0.31445,0.95899 2.74352,1.79946 0.4,2.3 -0.36278,0.42302 -1.98566,0.37573 -1.7,-0.8 0.15325,1.30213 2.70355,2.96483 0.1,2.5 -1.34701,-0.50366 -1.29854,-3.60439 -0.7,-3.3 -0.33409,-0.8552 1.41548,-0.0285 1.9,-0.7 z m 10.6,-0.1 c 0.23837,0.19681 0.05,0.0108 0,0 z m -0.3,0 c 1.41824,3.20539 -1.28162,0.10366 0,0 z m -5.9,-0.6 c 0.30815,1.60627 -0.92908,0.6662 0,0 z m 0.4,-0.1 c 0.35305,1.50456 -0.97821,1.46287 0,0 z m 0.2,-0.1 c 0.50181,1.66623 2.18029,0.91449 2.7,0.8 -0.55897,1.06375 1.7038,2.88669 -0.2,2 -0.12151,0.941 -1.72242,-0.1312 -2.2,-1.6 -0.83117,-0.32114 -0.61467,-0.55346 -0.3,-1.2 z m -0.8,-0.1 c 0.049,0.60359 -0.38063,0.0648 0,0 z m 0.5,-0.1 c -0.016,-0.23192 -9.3e-4,-0.14642 0,0 z m -2.1,-0.1 c 1.25602,0.15225 0.86995,0.60622 1.3,1.7 2.30581,-1.16872 2.69729,3.46011 0.3,3.2 -0.86814,-1.3608 -3.5175,-1.26546 -1.8,-2.9 -0.87185,-1.07461 -1.10947,-1.18507 0.2,-2 z m -6.5,-0.4 c 0.0516,0.30712 -0.30712,-0.0516 0,0 z m 0.3,-0.2 c 1.14366,0.80574 -0.46768,1.06793 0,0 z m 3.7,-0.4 c 1.13966,0.9154 3.17987,0.56497 1.4,2 0.94179,1.24917 0.52543,1.84075 -1,1 -0.59372,-1.68514 -2.48389,0.0866 -3.3,-0.2 -0.30786,-1.59378 -0.42206,-2.11165 1.5,-1.8 0.96302,0.84921 0.98851,-0.2467 1.4,-1 z m 30.7,10.4 c -1.01203,0.90737 -2.004,-0.66984 -2.5,-1.3 0.0652,-0.86449 -0.82058,0.72396 -0.8,0.4 0.30342,1.05711 -1.87608,1.0527 -1.2,0 -0.86529,1.61926 -1.07787,-0.55642 -1.2,0.2 -0.93514,-0.3552 -0.48983,-0.82256 -1.8,-0.3 -1.1104,-1.78509 -0.11474,0.71151 -1.4,-0.6 -0.39909,-0.48613 -0.81336,-0.29935 -1.6,-0.8 -0.35271,1.1757 -1.43105,-0.59041 -0.7,0.8 -1.04458,-0.17861 0.12827,1.43392 -0.2,1.7 1.09141,0.49649 0.91035,2.59703 -0.5,0.9 0.5597,-0.57898 -0.71169,-1.65643 -0.3,-3 -1.20993,-0.33498 1.29886,-1.62117 0,-1.2 -0.76957,1.18634 -0.0999,1.43262 0.2,2.5 -0.4196,0.721 1.03546,2.2147 -0.7,0.9 0.70566,-1.21637 -1.28617,-2.46812 -0.9,-3 0.66053,-0.026 0.26168,-3.11901 -0.2,-0.9 -0.246,0.0806 -0.8789,2.06776 -1.8,0 -0.85023,-1.40154 2.53283,-0.8712 2.6,-1.4 0.50469,-0.22299 -0.95635,0.15097 -2,0.5 -1.35808,0.33619 -1.54455,0.9512 -1.2,-0.9 2.57607,-0.24332 1.30249,-1.71123 0.9,-1.3 1.85114,0.60225 -1.02576,1.22114 -1.1,1.5 -0.92938,2.55653 -2.02341,-1.63341 -1.9,-1.2 -1.52954,-0.78202 -0.60816,-0.65163 0.4,1 0.19531,2.05601 -1.41273,-1.6456 -0.5,-0.2 0.11308,2.47474 -1.93426,-1.95102 -0.8,-1.4 0.23839,-1.34761 -0.91607,1.11858 -0.5,-0.8 -0.59242,-0.37163 -0.76849,-1.3345 0,-2.3 -0.18005,1.3448 -1.14614,-0.0375 -1.6,0.2 2.2718,0.0628 0.19854,2.8462 -0.7,1.2 -1.09197,-1.15456 -0.64716,0.50867 1.2,0.6 -0.92623,0.71961 -0.48336,-0.19579 0.1,1.1 -0.77088,1.92739 -3.10412,-0.8115 -1.3,-0.7 -0.26453,-0.19055 -1.66377,1.49853 -0.9,-0.7 -1.58351,0.62873 -2.11071,-1.90822 -1.2,0 0.30557,0.93663 -1.00879,0.37071 -1.5,-0.3 -1.08358,-1.03066 -1.94754,-0.08 -3.4,-0.9 -1.56633,-0.72388 -1.88115,-0.87594 -2.5,0.5 -1.29471,-0.24554 -0.93203,-0.98109 -1.5,-1 -0.48404,0.45682 -1.41288,0.30789 -1.6,-0.7 -0.21716,0.68771 -2.67099,1.2736 -0.8,0.7 1.28966,0.90161 -1.31569,0.33368 0.5,0.9 1.2102,0.32243 1.03219,1.97295 1.2,2.3 0.0789,2.53664 2.33398,3.44 2.9,4.7 -0.55378,1.45012 -1.92833,0.93074 -1.3,0.8 -0.54486,1.37671 1.57274,5.11868 0.8,5 1.00108,0.0269 0.6152,2.91189 2.5,3.2 -1.93721,0.13337 -5.89683,1.61827 -6.9,-0.3 -0.83383,-2.30943 2.72022,-1.44727 2.5,-1.6 -1.46438,-0.62099 -2.9694,1.00823 -2.4,-1.1 0.76808,-0.4285 3.27166,-0.13451 1.9,-0.5 0.16077,-1.47304 -2.02101,1.58076 -1.8,0.1 1.58051,-1.77555 0.92099,-0.13152 -0.5,-0.2 -1.38542,-2.25289 1.85893,-3.82255 1.1,-5.7 1.44506,0.20372 1.00865,-1.94937 1.3,-1.1 -0.49746,1.01495 -1.18488,1.36242 -1.8,-0.1 0.3288,-2.15007 0.0571,3.0466 -0.1,0.3 -0.6966,-1.43479 -0.99387,-0.81124 -0.2,0.1 0.22345,2.76723 -4.68095,-1.49488 -4.3,-3.9 -5.20179,0.21055 -6.84997,1.49584 -9.7,-2 -0.55966,-4.12664 1.9766,-5.91123 0.6,-8.8 1.27315,-3.55018 3.99633,-5.62118 6.4,-6.9 0.55674,-1.75548 4.38714,-3.68434 1.8,-6.1 -2.99212,0.11108 -6.81775,-0.97032 -1.9,-2.3 -1.35985,-4.33675 5.08006,-5.88674 2.6,-10.3 5.44855,0.27384 -1.46755,7.19253 1.6,9.1 6.65397,-2.63735 2.29676,4.82517 4.2,6.9 2.53872,5.18399 9.40493,3.10752 14.1,3.8 2.64046,0.247 8.42549,-1.58149 8.8,1.5 0.19373,3.48896 -9.17395,8.71047 -2.4,10.7 5.38151,-1.93285 16.01728,-0.066 13.4,7.6 0.35132,1.54747 -0.0972,2.86786 0.5,4.1 z"
         id="path109"
         inkscape:connector-curvature="0" />
    </g>
    <!-- COMPOSE END -->
    <!-- COMPOSE BEGIN -->
    <g
       id="sokoto">
      <path
         d="m 125.4,158.7 c 8.88858,3.49568 18.60161,6.65227 27.5,8.9 8.98878,-2.71945 15.97413,6.66499 22.2,11.8 2.41408,3.19994 6.28231,7.03535 -0.2,8.4 -5.37099,3.42352 -10.64484,-1.00582 -15.8,-1.6 -2.69777,2.55769 -2.57141,5.23965 -8.4,4.1 -7.5568,0.61456 1.99928,11.24047 -5.9,11.7 -6.01816,0.77062 -13.48066,-0.81954 -16,6.4 -6.23467,1.70328 -1.21961,6.68943 -2.5,10.9 -6.32097,2.97919 -15.19523,1.51536 -22.3,1 -2.18447,6.80427 0.0648,15.31299 -1.5,22.2 -3.174286,-0.3854 -7.686372,-0.92947 -11.7,1.6 -3.300629,1.45659 -9.179955,7.1329 -9.9,0.1 4.124005,-6.72353 4.161292,-14.30532 3.5,-21.9 -1.571347,-5.891 4.752814,-9.04361 9.3,-5.8 2.121512,-5.33269 -2.245413,-10.66199 0.4,-16 -2.648782,-3.28722 -2.725193,-5.98871 -1.2,-9.8 2.797217,-3.1188 -1.808137,-4.1896 -2.6,-0.8 -4.377509,1.12297 -9.300419,-2.53488 -13.4,-3.6 -3.297656,-5.24812 -12.656433,1.53881 -13.2,-4.54564 0.363496,-3.45251 -1.788941,-8.7797 3.5,-7.65436 5.729336,-4.13837 10.628477,-9.90331 18.1,-9.8 4.766006,-0.0642 9.6853,-2.99533 13.9,-0.3 4.87963,0.005 9.62912,0.0239 14.4,-0.2 2.62606,-4.09953 7.43974,-5.05757 11.8,-5.1 z"
         id="path112"
         inkscape:connector-curvature="0" />
    </g>
    <!-- COMPOSE END -->
    <!-- COMPOSE BEGIN -->
    <g
       id="taraba">
      <path
         d="m 363.4,321.4 c 7.45277,0.54731 15.22224,0.18731 22.8,-0.2 2.10258,4.27846 4.5759,8.18773 9.6,8.8 4.63133,3.27258 1.29237,9.98885 6.8,11.8 7.22435,2.37627 -1.06398,9.66529 -1.8,13.9 1.4753,5.46849 -6.28284,6.72341 -8.2,11.3 -2.8238,4.78848 -10.50476,7.18619 -11.5,12.3 1.12588,4.71105 6.16435,10.7266 9.2,4 4.09508,0.9836 11.54357,5.50453 9.9,11 0.72453,4.60125 5.06201,7.88129 -0.5,10.7 -3.40937,3.24948 0.16865,7.88413 0.1,10.8 -3.47794,-0.1103 -5.30962,0.0985 -7.2,2.6 -2.70636,-0.0335 -1.86517,3.5162 -4.5,4 -1.39858,2.04575 2.82371,2.54929 0.2,4.5 1.43649,1.45414 -1.66469,2.54182 -1.3,4.2 -0.86346,2.71229 -3.23933,1.57994 -5.2,2.6 1.10686,2.80475 -3.24411,2.91727 -4.9,2.7 -2.24813,-1.15302 -4.72706,-0.007 -7,-1.7 -3.72937,3.2791 -1.20367,-3.79312 -2.9,-5.2 -2.30963,-2.02385 -5.17744,2.74823 -7.3,-0.4 0.57384,-3.18915 -3.56215,-2.43746 -4.3,-5.2 1.61567,-2.18926 0.77118,-4.30879 -1.9,-4.3 -1.98173,0.5139 -3.94971,-3.62376 -6.3,-3.1 -1.64515,0.0756 -0.86007,-5.81531 -2.7,-3.3 0.1488,4.15733 -1.09852,10.28621 -6.1,8.5 -3.54171,-0.59299 -10.28163,2.89066 -10.9,-1.8 0.0618,-1.889 -0.53195,-4.27253 -2.8,-1.6 -3.83384,2.37273 -7.2706,6.65269 -10.8,8.4 -3.13186,-1.04262 -4.30158,-0.75424 -4.7,2.3 -0.002,2.24329 -1.45178,5.51183 -2.8,7.6 -4.80723,0.4991 0.67527,-5.95928 -0.8,-9.4 -0.8902,-6.56115 2.42741,-13.91037 8.8,-17 -0.93282,-5.18375 5.13423,-11.09352 -1.7,-14.1 -5.64424,-4.43461 -10.09446,-11.32401 -18.4,-10.1 -4.64835,-0.89926 -9.35055,1.64607 -13.5,1.7 1.8162,-5.05302 8.38903,-5.71788 11.5,-9.5 -0.67174,-2.27178 -0.8688,-5.06653 -3,-6.5 1.66505,-7.44769 10.70317,3.30372 13.6,-3.9 8.65538,2.14655 13.57825,-5.77461 20.8,-8.4 3.27866,-5.28184 8.15594,-8.52658 14.6,-8 6.06235,-1.20198 11.4913,-4.88038 9.6,-10.9 -2.61693,-5.02292 -2.05283,-10.61829 -3.8,-15.7 4.61969,-2.4947 10.0753,-0.69276 14.8,-4 1.53253,-0.16239 2.98672,0.48135 4.5,0.6 z"
         id="path115"
         inkscape:connector-curvature="0" />
    </g>
    <!-- COMPOSE END -->
    <!-- COMPOSE BEGIN -->
    <g
       id="water_body">
      <path
         d="m 478.1,165.3 c 6.25644,8.1166 13.59113,16.54935 19.8,24.8 1.4191,6.98109 3.06431,14.96529 4.5,21.4 -0.30654,1.73986 -5.20749,2.13656 -5.3,1.8 -2.20706,-0.0893 -4.15799,-0.21257 -4.2,-3 -2.12343,-1.2876 -3.53487,-2.09246 -4.9,-3.2 -0.77774,-0.70348 -4.54432,-2.8297 -2.5,-2.6 -0.84126,-0.7643 0.0516,-1.38677 -0.7,-2.9 0.78157,-0.0151 1.15247,-0.98595 0.5,-1.9 -1.2752,-0.49106 0.82856,-1.53339 -0.5,-3.2 1.4434,-2.58299 -2.18497,-2.08033 0.7,-4.7 0.26901,-1.12605 1.59679,-3.45195 2.9,-2.5 0.24403,-0.77294 0.37176,-4.07552 -2.2,-1.2 -1.78052,2.78185 -6.16158,2.56475 -5.5,0.5 2.78096,0.0642 -0.5881,-1.68287 -3.1,-2 -4.51766,-1.86001 -5.72032,-7.94169 -9.3,-8.9 -2.36184,-3.73143 2.46179,-1.20342 -1.8,-6.2 0.49603,-1.96551 -2.27501,-7.75574 2.1,-6.1 3.17815,-0.16291 6.37739,0.0985 9.5,-0.1 z"
         id="path118"
         inkscape:connector-curvature="0" />
    </g>
    <!-- COMPOSE END -->
    <!-- COMPOSE BEGIN -->
    <g
       id="yobe">
      <path
         d="m 370.5,178.1 c 8.60929,-0.4607 16.68332,0.95541 24.5,3.7 6.66824,-0.17455 11.31089,4.27152 16.8,7.2 1.35407,-0.92929 2.96697,-0.029 3.2,-1.2 1.54479,-0.19167 4.31626,1.08261 4.1,1.3 1.98588,-0.46843 2.60599,0.80802 3.8,0.1 2.42028,2.57864 -3.24769,10.15556 3,12 6.56411,4.5707 -3.76103,9.40122 -6,12.9 3.60153,7.02897 -2.98951,15.17145 0.4,22.5 -6.73725,7.30599 0.3189,5.18892 3.26574,10.21914 -1.29423,5.54239 -11.21399,9.04613 -8.06574,16.28086 -1.12258,9.76709 -19.89696,3.30088 -17.2,15.3 1.19077,5.86442 -11.83931,8.18312 -10,0.9 1.05148,-4.01866 1.51761,-12.44831 -3.2,-11.7 -3.09139,-5.86371 -13.19037,-15.52286 -21.3,-10.5 -7.41206,-0.78588 2.21885,-10.15206 -3.5,-14.2 -4.32707,-5.72111 -4.31724,-13.02221 -6.2,-19.3 -0.35008,-6.18545 -4.44441,-10.00203 -8.5,-14 0.0942,-6.18377 -2.86688,-10.48354 -9.1,-10.5 -7.56924,5.66068 -4.82085,-8.50505 -11.85136,-5.61362 -6.69484,0.12156 -10.0584,5.93975 -15.74864,6.71362 -7.4232,-0.57347 2.20641,-4.54413 3.4,-7.6 6.32201,-7.00739 15.20282,-11.67016 24.9,-10.7 6.84352,-1.25281 13.58098,-4.22191 20.9,-3.4 4.15021,-0.40722 8.25356,-0.30748 12.4,-0.4 z"
         id="path121"
         inkscape:connector-curvature="0" />
    </g>
    <!-- COMPOSE END -->
    <!-- COMPOSE BEGIN -->
    <g
       id="zamfara">
      <path
         d="m 181.9,188.9 c 2.19713,3.96187 6.02768,4.33307 9.7,3.5 -1.42847,8.61773 -0.25516,18.18742 2.6,26 2.5354,3.70048 0.112,8.58915 0.4,11.4 4.50629,0.68607 6.47603,6.47456 1,5.1 -0.95495,5.48312 -7.39769,2.13822 -10.5,4.3 -3.54164,5.36411 1.39018,9.25041 -0.5,14.5 -2.46801,2.8984 -7.09951,6.64077 -8.53826,11.56007 -6.21272,5.00156 -16.99966,-1.60423 -20.96174,7.43993 -3.99365,3.07305 -4.0653,-5.70089 -7.5,-7.3 -2.2729,-4.56746 -1.28855,-11.83681 -7.4,-13.4 4.70955,-5.38951 -2.15788,-9.58066 -6.9,-7.7 -5.2441,0.84469 -11.62166,0.65083 -14.8,-3.3 -5.39818,-1.64257 -8.18793,4.50216 -13.3,1.4 -5.32227,0.31376 -0.81381,-9.04132 -2.02,-13.06003 0.0898,-3.3961 -1.64477,-11.35263 4.2755,-8.63072 6.1583,0.12188 13.61214,1.28414 18.8445,-1.40925 1.16999,-4.2062 -3.67252,-9.19639 2.5,-10.9 2.45938,-6.87178 9.50523,-5.82319 15.4,-6.3 8.67194,0.1144 -1.06774,-11.09437 6.5,-11.8 5.82859,1.13965 5.70223,-1.54231 8.4,-4.1 5.43664,0.78873 11.49968,5.42655 16.9,0.9 4.17799,-3.54042 3.01145,-0.48609 5.9,1.8 z"
         id="path124"
         inkscape:connector-curvature="0" />
    </g>
    <!-- COMPOSE END -->
  </g>
  <!-- COMPOSE END -->
</svg>
